<svg width="72" height="63" viewBox="0 0 72 63" fill="none" xmlns="http://www.w3.org/2000/svg">
<path d="M58.8831 42.5725C58.8537 42.5725 58.8243 42.5725 58.7656 42.5725C58.6186 42.6019 58.4717 42.6313 58.2954 42.6901C58.0309 42.7783 57.737 42.9547 57.5313 43.1017C57.3256 43.2193 57.1198 43.3957 56.9141 43.6015C56.6203 43.8662 56.3852 44.1308 56.1794 44.3954C55.8562 44.8364 55.6211 45.3656 55.4741 45.8066C55.3566 46.1006 55.2978 46.3652 55.239 46.6298C55.1509 47.0121 55.1509 47.4237 55.1509 47.8059V47.8647C55.1509 48.0999 55.2097 48.3645 55.3272 48.6879C55.4448 48.9819 55.5329 49.2171 55.6505 49.4229C55.9443 49.8934 56.3852 50.2462 56.9435 50.452C57.208 50.5402 57.4431 50.599 57.737 50.6284C57.7958 50.6284 57.8545 50.6284 57.9133 50.6284C58.2072 50.6284 58.5011 50.5402 58.7656 50.4814C59.03 50.3932 59.2651 50.305 59.5002 50.1874C59.8235 50.011 60.088 49.8051 60.3525 49.5405C60.617 49.3053 60.8815 48.9525 61.1166 48.5703C61.2635 48.3057 61.4398 47.9823 61.5868 47.6295C61.9688 46.718 62.0863 45.8948 61.91 45.1892C61.7925 44.6894 61.5868 44.2778 61.3223 43.9838C61.0284 43.6603 60.6757 43.4545 60.3819 43.3075C60.2055 43.1899 60.0586 43.0723 59.8823 42.9253C59.7353 42.8077 59.5002 42.6607 59.2651 42.6313C59.1476 42.6019 59.0007 42.5725 58.8831 42.5725Z" fill="white"/>
<path d="M68.8157 43.3076C68.2867 43.3076 67.6989 43.5722 67.2287 44.0426C66.9936 44.2779 66.7585 44.5719 66.5822 44.8953C66.4646 45.1011 66.3765 45.3069 66.2883 45.5127C66.1708 45.7773 66.1414 46.0713 66.0826 46.3065C66.0532 46.5123 66.0532 46.7475 66.0532 46.9239C66.0532 47.1297 66.0826 47.3062 66.1414 47.4532C66.2002 47.659 66.2589 47.806 66.3765 47.953C66.494 48.1294 66.641 48.2764 66.8761 48.4528C67.17 48.688 67.5814 48.835 67.9634 48.8938C68.0516 48.8938 68.1691 48.9232 68.2867 48.9232C68.5806 48.9232 68.9332 48.8644 69.2859 48.7762C69.7267 48.6586 70.1087 48.4528 70.4908 48.1588C70.961 47.7766 71.343 47.2768 71.6075 46.6593C71.8426 46.1301 72.1365 45.1305 71.5487 44.3954C71.2549 44.0132 70.7846 43.6898 70.2851 43.484C70.1969 43.4252 70.1087 43.3958 69.9912 43.3958C69.9618 43.3958 69.9324 43.3958 69.8736 43.3958C69.7855 43.3958 69.7267 43.4252 69.6385 43.4546C69.521 43.3958 69.4328 43.3664 69.3153 43.337C69.1389 43.337 68.9626 43.3076 68.8157 43.3076ZM68.7863 46.9533C68.6393 46.9533 68.4924 46.9239 68.3455 46.8651C68.1104 46.7475 67.9046 46.6299 67.7577 46.5123C67.6989 46.4241 67.6402 46.3653 67.6108 46.2771C67.5814 46.1595 67.5814 46.0713 67.552 45.9537C67.552 45.8067 67.5814 45.6891 67.6108 45.5421C67.6402 45.4245 67.6989 45.3069 67.7283 45.1893C67.7577 45.1305 67.7871 45.1011 67.8165 45.0423L67.8753 44.9541C67.9634 44.8953 68.0222 44.8365 68.1104 44.7777C68.1398 44.7777 68.1398 44.7483 68.1691 44.7483C68.2573 44.7189 68.3455 44.7189 68.4336 44.7189C68.5512 44.7189 68.6687 44.7483 68.7863 44.7777C68.7863 44.8659 68.7863 45.1305 68.9332 45.2775C68.9038 45.2775 68.9038 45.3069 68.8744 45.3069C68.6981 45.4245 68.5512 45.6303 68.4924 45.7479C68.4336 45.8361 68.3455 46.1007 68.463 46.3065C68.5218 46.4535 68.6393 46.5123 68.8157 46.5123C69.1095 46.5123 69.4034 46.2183 69.521 45.9537C69.5797 45.8361 69.6091 45.6891 69.6091 45.5715L69.6973 45.6009C69.8442 45.6891 69.9912 45.7773 70.1087 45.8655C70.1381 45.8949 70.1675 45.9537 70.1969 46.0125V46.0713V46.1301C70.1675 46.1889 70.1381 46.2477 70.1087 46.3359C70.0793 46.3947 70.05 46.4535 70.0206 46.5123L69.9618 46.5711C69.903 46.6299 69.8442 46.6593 69.7855 46.7181C69.6973 46.7475 69.6091 46.8063 69.521 46.8357C69.2859 46.8945 69.0508 46.9533 68.7863 46.9533Z" fill="white"/>
<path d="M69.0508 45.5421C69.0215 45.6303 68.9921 45.7479 69.0215 45.8361C69.0508 45.9243 69.139 45.9243 69.1978 45.9243C69.3447 45.9243 69.4917 45.7773 69.5504 45.6303C69.5798 45.5421 69.6092 45.4244 69.5798 45.3362C69.5504 45.248 69.4623 45.248 69.4035 45.248C69.2272 45.248 69.1096 45.4245 69.0508 45.5421Z" fill="white"/>
<path d="M68.7273 44.1308C68.4628 44.219 68.1983 44.3954 68.022 44.5718C67.7575 44.8364 67.5518 45.1305 67.4049 45.4833C67.2579 45.8067 67.1992 46.1007 67.2285 46.4535C67.2285 46.6887 67.3461 46.8651 67.493 47.0415C67.6106 47.1885 67.7575 47.2179 67.9338 47.3061C68.0514 47.3355 68.1689 47.3355 68.2865 47.3061C68.4334 47.3649 68.6097 47.4237 68.7861 47.4237C69.1093 47.4237 69.3738 47.3061 69.6383 47.1591C69.7853 47.0709 69.9322 46.9533 70.0497 46.8357C70.2261 46.6887 70.4024 46.4535 70.4906 46.2477C70.6375 45.9243 70.6963 45.6009 70.6669 45.2481C70.6375 45.1305 70.6081 45.0423 70.5787 44.954C70.5493 44.8952 70.5199 44.807 70.4906 44.7482C70.4024 44.6012 70.2555 44.4542 70.1085 44.366C69.9322 44.2484 69.7265 44.1602 69.5208 44.1014C69.4032 44.072 69.3151 44.072 69.1975 44.072C69.0506 44.072 68.8742 44.1014 68.7273 44.1308Z" fill="white"/>
<path d="M36.4305 0C36.0779 0 35.7252 0.0293983 35.402 0.0293983C35.1375 0.0587993 34.873 0.0588011 34.6085 0.0588011C34.2852 0.0588011 33.962 0.0882039 33.6681 0.0882039C33.0216 0.147006 32.3457 0.176403 31.6991 0.323408C31.082 0.441012 30.4649 0.646822 29.8771 0.88203C29.2894 1.14664 28.731 1.47005 28.202 1.79346L27.9669 1.94046C27.9963 1.91106 28.0551 1.88166 28.0845 1.88166C27.7318 2.08747 27.4086 2.29328 27.0559 2.52848C26.8796 2.64609 26.7326 2.76369 26.5563 2.8813C26.38 3.0283 26.2037 3.1459 25.9979 3.26351C25.851 3.35171 25.7335 3.43992 25.5865 3.52812C25.3514 3.67512 25.1457 3.82213 24.9106 3.96913C24.8224 4.02794 24.7637 4.08674 24.6755 4.11614C24.5286 4.20434 24.411 4.32195 24.2641 4.41015C24.2053 4.43955 24.1171 4.46895 24.0584 4.49835L23.9114 4.55715C23.7351 4.64536 23.5588 4.76296 23.3824 4.88056C23.3531 4.88056 23.3237 4.90997 23.2943 4.90997C23.2061 4.93937 23.118 4.96877 23.0298 4.99817C22.971 4.99817 22.9416 4.99817 22.8829 5.02757C22.8241 5.02757 22.7653 5.02757 22.7065 5.05697C22.5008 5.08637 22.3245 5.17458 22.1482 5.29218C21.7074 5.23338 21.2372 5.17458 20.7963 5.14517L20.5612 5.11577C20.238 5.08637 19.9147 5.02757 19.5914 4.99817C19.2682 4.93937 18.9155 4.90996 18.5923 4.88056C18.2102 4.85116 17.8576 4.82176 17.5343 4.82176C17.211 4.82176 16.8878 4.85116 16.5939 4.88056C15.8592 4.99817 15.1245 5.20397 14.478 5.40978C13.9196 5.58619 13.3025 5.8214 12.5972 6.11541L12.4796 6.17421C11.8625 6.43882 11.216 6.70343 10.5988 6.99744C9.9817 7.29145 9.33517 7.67366 8.62987 8.11467C8.10089 8.46748 7.6013 8.8203 7.01355 9.29071C6.48457 9.70233 5.98499 10.1727 5.4854 10.6138L5.27968 10.8196C4.0454 11.9368 3.13439 12.9364 2.34092 13.9655C2.1646 14.2007 1.95888 14.4653 1.81195 14.7299C1.60623 15.0827 1.40052 15.4943 1.16542 15.9941C0.90093 16.5822 0.695218 17.229 0.489505 17.964C0.283792 18.7284 0.107466 19.4635 0.0486907 20.1985C-0.0100845 20.6101 -0.0100841 21.0217 0.0193035 21.3745C0.0193035 21.5803 0.0486898 21.8155 0.107465 22.0801C0.136853 22.2566 0.195627 22.4624 0.28379 22.6388L0.342567 22.7858C0.577668 23.4914 0.959705 24.197 1.31236 24.8144C1.45929 25.0791 1.60623 25.3437 1.75317 25.6083C1.9295 25.9611 2.10582 26.2845 2.31154 26.6373C2.60541 27.1665 2.92867 27.7251 3.22255 28.225L3.28133 28.3426L3.39888 28.5778C3.66337 29.0188 3.89847 29.4598 4.10418 29.9008C4.22173 30.2242 4.28051 30.4888 4.30989 30.724C4.33928 31.0474 4.36867 31.3709 4.39805 31.7825C4.39805 32.3411 4.39806 33.0173 4.33928 33.6935C4.30989 34.164 4.25112 34.6638 4.19234 35.1048L4.13357 35.6634C4.07479 36.075 4.01602 36.4572 3.95724 36.8689C3.92785 37.1335 3.86908 37.3981 3.83969 37.6627C3.75153 38.3977 3.63398 39.1033 3.51643 39.7501C3.28133 41.0732 3.04623 42.4256 2.8699 43.7781C2.69357 45.1893 2.6348 46.63 2.72296 48.1C2.78174 49.4819 3.04623 50.8049 3.45765 52.0104C3.69275 52.6572 3.95724 53.3334 4.25112 54.0684C4.54499 54.7153 4.83887 55.3915 5.27968 56.0383C5.7205 56.7145 6.1907 57.2731 6.63151 57.773C7.04294 58.214 7.54253 58.6256 8.01273 59.0078L8.30661 59.243C9.21762 60.0074 10.305 60.8601 11.5099 61.4481C12.3327 61.8303 12.9792 62.0655 13.6258 62.2419C14.3311 62.4183 15.0364 62.5065 15.7711 62.5947C16.0943 62.6241 16.3882 62.6535 16.7115 62.6535C17.0935 62.6535 17.5049 62.6241 17.887 62.5653C18.2102 62.5359 18.5041 62.4477 18.7686 62.3595C19.0919 62.2713 19.4739 62.1537 19.8559 62.0067C21.0021 61.5657 22.1776 60.9483 23.4118 60.1838C24.0877 59.7722 24.7343 59.2724 25.3808 58.802C25.8216 58.4492 26.2918 58.1258 26.7914 57.773C27.5849 57.2437 28.349 56.7439 29.0836 56.3029C29.6126 56.0089 30.0828 55.7443 30.5236 55.5385C30.9645 55.3327 31.4346 55.1563 31.8755 55.0387C32.6689 54.8035 33.4624 54.6271 34.2559 54.4506C34.6673 54.3624 35.0787 54.2742 35.4901 54.1566C36.2542 53.9802 36.9007 53.8038 37.5473 53.598C38.1938 53.3922 38.8109 53.0982 39.4281 52.863L39.5162 52.8336C41.1032 52.1574 42.2787 51.5988 43.366 51.0401C44.5121 50.4227 45.6876 49.6289 46.9807 48.6293C48.1268 47.7178 49.2142 46.7182 50.2133 45.6892C50.7129 45.1599 51.1537 44.6013 51.6239 43.9251C52.0941 43.2489 52.4468 42.4844 52.7113 41.867C53.299 40.544 53.7105 39.1915 53.9162 37.8097C54.1513 36.3396 53.9456 34.8696 53.7398 33.4583L53.7105 33.1643C53.6223 32.6645 53.5635 32.1353 53.5047 31.6355C53.446 31.1357 53.446 30.6064 53.4166 30.1066V30.0184C53.4166 29.2246 53.446 28.6366 53.5047 28.0779C53.5635 27.3723 53.6811 26.6961 53.7986 26.0493L53.9162 25.4319C54.0043 24.932 54.0925 24.4028 54.1807 23.903C54.2688 23.2856 54.357 22.6682 54.4158 22.0801L54.4451 21.9037C54.5039 21.2275 54.5921 20.5513 54.6509 19.8457C54.7096 19.1106 54.7096 18.3756 54.6802 17.5524C54.6509 16.8174 54.5921 16.1999 54.4451 15.6119C54.2688 14.8475 53.9749 14.0831 53.7105 13.4069C53.4754 12.76 53.1227 12.1426 52.77 11.5252C52.5643 11.143 52.3292 10.7608 52.1235 10.408C51.9766 10.1727 51.8296 9.93754 51.6827 9.67293C51.3594 9.11431 50.9774 8.49689 50.5954 7.87947C50.2427 7.32085 49.8019 6.82103 49.3317 6.29181C48.8909 5.76259 48.3619 5.26278 47.7448 4.73356C47.2158 4.26314 46.6574 3.88093 46.1285 3.46932L45.864 3.29291C45.4231 2.9695 44.9823 2.64609 44.5121 2.35208C44.0419 2.08747 43.513 1.82286 42.8664 1.55825C42.2199 1.29364 41.6321 1.08784 41.0738 0.88203C40.4566 0.676223 39.8101 0.529219 39.2518 0.382214C38.664 0.235209 38.0469 0.147004 37.4297 0.0588011C37.0771 -8.98123e-07 36.7832 0 36.4305 0Z" fill="white"/>
<path d="M27.0857 18.9638C26.116 19.052 25.1462 19.2872 24.2645 19.7283C22.4131 20.6103 20.8556 22.0803 19.7682 23.815C19.5037 24.256 19.2686 24.697 19.0923 25.1674C18.916 25.6673 18.7691 26.1965 18.6515 26.6963C18.534 27.1667 18.4752 27.6371 18.4164 28.1075C18.3576 28.6074 18.3282 29.1366 18.387 29.6658C18.4458 30.1362 18.534 30.636 18.6809 31.1064C18.8572 31.5475 19.0629 31.9297 19.3568 32.3119C19.7095 32.7529 20.1797 33.0763 20.7086 33.2821C21.0907 33.4291 21.5021 33.4879 21.8841 33.5467C22.5307 33.6055 23.1772 33.6349 23.7943 33.4879C24.4409 33.3409 25.0874 33.1645 25.7045 32.9293C26.9094 32.4589 28.0555 31.9003 29.3192 31.5769C29.7306 31.4887 30.1421 31.4299 30.5535 31.4299C30.9649 31.4005 31.3763 31.4298 31.8172 31.4592C32.111 31.4886 32.4049 31.5475 32.6988 31.5769C32.9927 31.6357 33.2571 31.7239 33.551 31.7827C34.1388 31.9297 34.7265 32.1061 35.2849 32.3413C35.6963 32.5765 36.0784 32.8411 36.4016 33.1939C36.5192 33.3703 36.6367 33.5467 36.7249 33.7525C36.7837 33.8701 36.813 33.9877 36.8424 34.1053C36.96 34.6052 36.96 35.1344 36.9306 35.6636C36.9306 35.8106 36.9012 35.9576 36.8718 36.1046C36.8424 36.3986 36.7543 36.6632 36.6661 36.9572C36.4898 37.4571 36.2547 37.9275 36.0196 38.3685C35.8433 38.6625 35.6375 38.9271 35.4024 39.1623C35.0204 39.5445 34.6384 39.8973 34.2269 40.2501C33.6392 40.6618 32.9927 41.044 32.3461 41.3674C32.1404 41.4556 31.9641 41.5438 31.7584 41.632C31.7584 41.632 31.7878 41.632 31.7878 41.6026C31.7584 41.6026 31.7584 41.632 31.729 41.632C31.6702 41.6614 31.6114 41.6908 31.5821 41.7202C31.6114 41.6908 31.6408 41.6908 31.6702 41.6614C31.4351 41.779 31.2294 41.8672 30.9943 41.9848C31.0531 41.9554 31.1412 41.926 31.2 41.8672C30.4359 42.22 29.7012 42.6022 28.8784 42.808C28.6139 42.8668 28.3788 42.8962 28.1143 42.8962C27.8498 42.8962 27.5853 42.8962 27.3208 42.8668C26.88 42.808 26.4392 42.7492 26.0278 42.6022C25.9102 42.5434 25.8221 42.4552 25.7339 42.367C25.4107 42.073 24.8817 42.367 24.6172 42.6022C24.3821 42.8374 24.1764 43.1314 24.1176 43.4549C24.1176 43.5431 24.1176 43.6607 24.0882 43.7489C24.0882 43.9253 24.1764 44.0723 24.3233 44.1899C24.4409 44.3075 24.529 44.3957 24.6466 44.5133C24.7641 44.5721 24.8817 44.6309 24.9992 44.6897C25.058 44.7191 25.1168 44.7485 25.2049 44.7485C25.3225 44.7779 25.44 44.8073 25.587 44.8367C25.9102 44.8661 26.2629 44.8955 26.6155 44.9249C26.9094 44.9249 27.1739 44.9249 27.4678 44.9249C27.8204 44.8955 28.1437 44.8367 28.467 44.7485C29.0253 44.6309 29.5837 44.3957 30.1127 44.1311C30.671 43.8665 31.2294 43.5725 31.7878 43.3078C32.6694 42.8962 33.5216 42.4846 34.3445 41.9554C35.2555 41.338 36.0784 40.5736 36.7837 39.7209C37.1363 39.3093 37.4008 38.8095 37.6653 38.3097C37.9298 37.8393 38.1061 37.3394 38.2824 36.8102C38.4 36.4574 38.5175 36.1046 38.5469 35.7224C38.5763 35.399 38.6057 35.105 38.6057 34.7816C38.6057 34.1053 38.6057 33.4585 38.4 32.8411C38.3412 32.6941 38.3118 32.5471 38.253 32.3707C38.1649 32.1649 38.0473 31.9885 37.9298 31.8415C37.7534 31.5769 37.5183 31.371 37.2832 31.1652C36.9012 30.8418 36.431 30.6066 35.9608 30.4302C35.52 30.2832 35.0792 30.1362 34.6384 30.048C34.1682 29.9304 33.698 29.8128 33.1984 29.754C32.2286 29.6364 31.2294 29.607 30.2596 29.7834C29.9951 29.8422 29.7306 29.901 29.4661 29.9598C29.231 30.0186 28.9959 30.1068 28.7608 30.195C28.32 30.342 27.8792 30.5478 27.4678 30.7242C26.9094 30.9594 26.3511 31.224 25.7633 31.4592C25.2049 31.6945 24.6466 31.8709 24.0588 32.0179C23.765 32.0767 23.4711 32.1061 23.2066 32.1061C22.9421 32.1061 22.6482 32.1061 22.3837 32.0767C22.325 32.0767 22.2662 32.0767 22.178 32.0473C22.2368 32.0473 22.2662 32.0473 22.325 32.0473C21.8841 32.0179 21.5021 31.9003 21.0907 31.7239C20.9731 31.6651 20.8262 31.5769 20.7086 31.4886C20.5617 31.371 20.4148 31.2534 20.2972 31.1064C20.1503 30.93 20.0327 30.7242 19.9446 30.5184C19.8564 30.3126 19.7682 30.0774 19.6801 29.8716C19.6213 29.607 19.5625 29.313 19.5331 29.019C19.5037 28.6956 19.5037 28.3721 19.5037 28.0487C19.5919 27.1373 19.7682 26.2259 20.0327 25.3438C20.1503 24.991 20.3266 24.6382 20.5029 24.2854C20.8556 23.7268 21.267 23.227 21.6784 22.7272C21.8548 22.5508 22.0311 22.3743 22.2074 22.1979C22.4425 21.9921 22.6776 21.7863 22.9127 21.6099C23.3535 21.2865 23.8237 20.9925 24.3233 20.7573C24.5584 20.6691 24.7935 20.5515 25.0286 20.4927C25.2637 20.4045 25.5282 20.3457 25.7927 20.2869C26.3804 20.1693 26.9682 20.1105 27.5853 20.1399C28.2025 20.2281 28.7608 20.4633 29.3192 20.7279C29.2898 20.6985 29.2604 20.6985 29.2017 20.6691C29.3486 20.7573 29.5249 20.8455 29.6719 20.9631C29.907 21.1101 30.1421 20.9925 30.3184 20.8161C30.4653 20.6985 30.5829 20.4927 30.6123 20.3163C30.6416 20.1693 30.6416 19.9635 30.4947 19.8753C30.0539 19.6106 29.5837 19.346 29.0841 19.1696C28.7902 19.052 28.467 18.9638 28.1731 18.9344C27.9968 18.905 27.791 18.905 27.6147 18.905C27.4384 18.9344 27.2621 18.9638 27.0857 18.9638Z" fill="#F52E5E"/>
<path d="M21.2076 17.8759C21.0313 17.9347 20.8844 18.1112 20.855 18.2876C20.855 18.3758 20.855 18.4346 20.855 18.4934C20.8844 18.5522 20.8844 18.6404 20.9138 18.6992C20.9431 18.7874 20.9725 18.905 21.0019 18.9932C21.0607 19.2284 21.1489 19.493 21.2076 19.7282C21.237 19.8164 21.3252 19.8458 21.4427 19.8164C21.6191 20.1986 21.766 20.5808 21.9423 20.963C22.2656 21.7569 22.5889 22.5213 22.9415 23.3151C23.2942 24.1384 23.6468 24.9322 23.9995 25.7554C24.3227 26.5198 24.6166 27.3137 24.9105 28.1075C25.2337 28.9307 25.557 29.7245 25.8803 30.5184C26.2035 31.2534 26.5562 31.9884 26.9088 32.7234C27.2615 33.4585 27.5554 34.2523 27.8492 35.0167C28.1431 35.7517 28.3488 36.5162 28.5252 37.2806C28.7015 38.0744 28.8778 38.8683 29.0541 39.6915C29.2305 40.5147 29.4068 41.3085 29.7007 42.1024C29.9358 42.808 30.2884 43.4548 30.6117 44.1016C30.788 44.4544 30.9349 44.8073 31.0819 45.1601C31.2288 45.5423 31.3464 45.9245 31.5521 46.2773C31.6109 46.4243 31.7284 46.5125 31.9047 46.5713C32.1398 46.6301 32.3749 46.5419 32.5806 46.4243C32.8451 46.2479 33.0802 46.0127 33.1978 45.7187C33.3447 45.4247 33.3741 45.1601 33.2566 44.8661C33.0802 44.3662 32.9333 43.837 32.6982 43.3666C32.4925 42.9256 32.228 42.514 31.9635 42.1024C31.699 41.6908 31.4639 41.2497 31.2582 40.8087C31.0525 40.3383 30.9055 39.8973 30.788 39.3975C30.5823 38.6036 30.3766 37.8098 30.1709 36.9866C30.0533 36.5456 29.9358 36.1046 29.7888 35.6635C29.6713 35.2813 29.5243 34.8991 29.4068 34.5169C29.2892 34.1347 29.0835 33.7819 28.9072 33.4291C28.7309 33.0469 28.5545 32.694 28.3782 32.3118C27.9962 31.5474 27.5847 30.8124 27.1733 30.048C26.3799 28.5191 25.7333 26.902 25.0868 25.285C24.7635 24.5206 24.4109 23.7855 24.0582 23.0211C23.7056 22.2567 23.3529 21.5217 22.9709 20.7866C22.7652 20.375 22.5301 19.9634 22.3244 19.5518C22.2068 19.3166 22.0893 19.0814 21.9717 18.8462C21.9129 18.7286 21.8542 18.6404 21.8248 18.5228C21.7366 18.317 21.6484 18.1111 21.5015 17.9347C21.4427 17.8759 21.384 17.8171 21.2958 17.8171C21.2664 17.8759 21.237 17.8759 21.2076 17.8759Z" fill="#F52E5E"/>
<path d="M25.2929 15.8765C25.1753 15.8765 25.0578 15.9941 25.0284 16.0823C25.0284 16.1117 24.999 16.1705 24.999 16.1999C24.999 16.2587 24.999 16.2881 24.999 16.3469C24.999 16.4057 24.999 16.4351 25.0284 16.4939C25.0578 16.6115 25.0872 16.7585 25.1166 16.8761C25.146 17.0231 25.1753 17.1407 25.2047 17.2877C25.2047 17.5523 25.2047 17.8463 25.1753 18.1109C25.1753 18.1697 25.2341 18.1991 25.2929 18.1697C25.3517 18.1403 25.3811 18.1109 25.4104 18.0815C25.4104 18.1109 25.4398 18.1403 25.4398 18.1992C25.4398 18.1698 25.4104 18.1403 25.4104 18.1109C25.4104 18.1697 25.4398 18.1991 25.4398 18.2579C25.4398 18.2579 25.4398 18.2579 25.4398 18.2285C25.7337 19.3458 26.057 20.4336 26.439 21.5215C26.6447 22.1095 26.8798 22.6975 27.0855 23.2855C27.2619 23.7559 27.4382 24.2558 27.6145 24.7556C27.8202 25.3142 28.0259 25.9022 28.2023 26.4608C28.3786 27.0194 28.5549 27.5781 28.7019 28.1661C28.9957 29.2245 29.3484 30.2536 29.6717 31.312C29.9068 32.1058 30.1419 32.8702 30.3476 33.6641C30.6414 34.7519 30.9353 35.8692 31.2586 36.957C31.6112 38.0448 32.0227 39.1327 32.4635 40.1617C32.8161 40.9261 33.1688 41.6905 33.4333 42.4844C33.5802 42.896 33.6978 43.337 33.8447 43.7486C33.9916 44.1896 34.1092 44.6601 34.2855 45.0717C34.4324 45.3951 34.8439 45.3069 35.079 45.1893C35.461 44.9541 35.7843 44.4248 35.608 43.9838C35.3728 43.4252 35.1965 42.8666 35.0202 42.308C34.8439 41.7788 34.6675 41.2495 34.4324 40.7497C34.2267 40.2499 33.9916 39.7501 33.7565 39.2797C33.5214 38.7798 33.2863 38.2506 33.0806 37.7508C32.8749 37.251 32.6692 36.7806 32.4929 36.2808C32.3165 35.7515 32.1402 35.2223 31.9639 34.6931C31.6112 33.5759 31.3174 32.4586 30.9647 31.3414C30.7884 30.8122 30.6121 30.283 30.4063 29.7537C30.23 29.2539 30.0537 28.7541 29.8774 28.2249C29.701 27.6957 29.5247 27.1665 29.3484 26.6666C29.2602 26.3726 29.1427 26.108 29.0545 25.814C28.937 25.52 28.8194 25.226 28.7019 24.932C28.2904 23.8735 27.879 22.8445 27.4382 21.7861C27.0268 20.7864 26.6153 19.7574 26.2921 18.7284C26.1451 18.2285 25.9688 17.7581 25.8219 17.2583C25.7631 17.0525 25.7043 16.8173 25.6162 16.6115C25.5868 16.4939 25.5574 16.4057 25.4986 16.2881C25.4692 16.1999 25.4398 16.0529 25.3517 15.9941C25.3517 15.8765 25.3223 15.8765 25.2929 15.8765ZM25.2341 17.4641C25.2341 17.4641 25.2635 17.4641 25.2341 17.4641C25.2635 17.4641 25.2341 17.4641 25.2341 17.4641ZM25.4398 18.2285C25.4398 18.2579 25.4398 18.2579 25.4692 18.2874C25.4398 18.2579 25.4398 18.2285 25.4398 18.2285Z" fill="#F52E5E"/>
</svg>
