<svg width="101" height="80" viewBox="0 0 101 80" fill="none" xmlns="http://www.w3.org/2000/svg">
<g clip-path="url(#clip0)">
<path d="M65 80L0 80C0 66.7769 8.66667 55.8678 21 51.2397C18.3333 48.595 16.3333 44.6281 15.6667 38.6777C14.3333 39.0083 12.3333 37.3554 12 35.3719C11 32.7273 10.6667 29.4215 12 29.0909C12.3333 29.0909 12.6667 29.0909 13 29.4215L13 23.1405C13 13.2231 10.6667 7.60331 26.6667 5.95041C26.6667 5.95041 39.3333 4.6281 42.6667 1.65289C42.6667 1.65289 42.6667 4.29752 44 6.94215C51.3333 9.91735 52.3333 16.1983 52 23.1405L52 29.4215C52.3333 29.0909 52.6667 29.0909 53.3333 29.0909C54.6667 29.4215 54 33.0578 53.3333 35.3719C52.6667 37.6859 51 38.6777 50 38.6777C49 44.2975 47 48.595 44.3333 51.2397C56 55.5372 65 66.7769 65 80ZM100 19.1736C100.667 17.8512 101 16.1983 101 14.5455C101 8.92562 96.3333 3.96694 90.3333 3.96694C89 3.96694 87.6667 4.29752 86.3333 4.6281C84.6667 1.98347 81.3333 0 77.6667 0C72.6667 0 68.3333 3.63636 67.3333 8.26446C61.6667 8.59504 57 12.8926 57 18.843C57 24.4628 61.6667 29.4215 67.6667 29.4215H68C69.6667 33.0578 73.3333 35.3719 77.6667 35.3719C80.3333 35.3719 83 34.3802 84.6667 32.7273C86.3333 33.719 88.3333 34.3802 90.3333 34.3802C96 34.3802 101 29.7521 101 23.8017C101 22.1488 100.667 20.4959 100 19.1736ZM71 36.0331C68.6667 36.0331 67 38.0165 67 40C67 42.314 69 43.9669 71 43.9669C73 43.9669 75 41.9835 75 40C75.3333 38.0165 73.3333 36.0331 71 36.0331ZM64 43.6364C62 43.6364 60.6667 44.9587 60.6667 46.9421C60.6667 48.9256 62 50.2479 64 50.2479C66 50.2479 67.3333 48.9256 67.3333 46.9421C67.3333 44.9587 66 43.6364 64 43.6364Z" fill="#F52E5E"/>
</g>
<defs>
<clipPath id="clip0">
<rect width="101" height="80" fill="white"/>
</clipPath>
</defs>
</svg>
