<svg width="76" height="73" viewBox="0 0 76 73" fill="none" xmlns="http://www.w3.org/2000/svg">
<path d="M75.8238 27.6585C74.6584 24.0139 68.2445 23.1812 61.4532 22.2825C57.7308 21.7942 53.5012 21.2422 52.225 20.2962C50.9394 19.3574 49.1466 15.4958 47.5614 12.0824C44.6788 5.8761 41.9495 0.0212305 38.1328 0.0117948L38.062 0C34.2783 0.0636911 31.5207 5.84779 28.5885 11.9881C26.9727 15.3826 25.1351 19.23 23.8542 20.1618C22.5591 21.0841 18.3296 21.6031 14.5954 22.056C7.81109 22.8816 1.38772 23.6554 0.189383 27.281C-1.00895 30.9067 3.67824 35.3627 8.64615 40.0711C11.3731 42.6613 14.4609 45.5958 14.9468 47.1055C15.4328 48.6152 14.6095 52.8047 13.89 56.4869C12.5738 63.1957 11.3306 69.5483 14.4067 71.82C15.1426 72.346 16.0673 72.6126 17.1595 72.589C20.2993 72.5395 24.8166 70.0956 29.183 67.7272C32.4548 65.9392 36.1654 63.9223 37.8167 63.9034C39.4137 63.9034 43.1361 65.9769 46.4197 67.8051C50.8851 70.2843 55.5063 72.8508 58.6507 72.7989C59.6321 72.7848 60.4695 72.5324 61.1536 72.0394C64.2485 69.8102 63.069 63.4599 61.8259 56.7252C61.1418 53.0358 60.3751 48.8369 60.8587 47.3272C61.3588 45.8246 64.482 42.9278 67.2349 40.3566C72.2476 35.693 76.9796 31.303 75.8238 27.6585Z" fill="#F52E5E"/>
</svg>
