<svg width="79" height="80" viewBox="0 0 79 80" fill="none" xmlns="http://www.w3.org/2000/svg">
<path d="M38.7812 34.9693C38.1353 34.7917 37.4732 34.6947 36.7788 34.6947C32.6285 34.6947 29.2534 38.0705 29.2534 42.2216C29.2534 46.3727 32.6285 49.7485 36.7788 49.7485C40.929 49.7485 44.3041 46.3727 44.3041 42.2216C44.3041 41.5271 44.2072 40.8487 44.0296 40.2188L64.9907 19.2533L68.382 19.7056L78.9918 9.09364L70.9658 8.0276L69.9 0L59.2902 10.6119L59.7424 14.0039L38.7812 34.9693Z" fill="#F52E5E"/>
<path d="M37.5865 27.7655L43.7876 21.5631C36.1816 18.9788 27.4127 20.7232 21.3569 26.7964C12.8465 35.3086 12.8465 49.1348 21.3569 57.6469C29.8674 66.1591 43.6908 66.1591 52.2012 57.6469C58.2731 51.5737 60.0172 42.8193 57.4334 35.1955L51.2322 41.3979C51.4583 45.3713 50.0534 49.4255 47.0174 52.4621C41.3653 58.1153 32.1928 58.1153 26.5407 52.4621C20.8886 46.8089 20.8886 37.6345 26.5407 31.9812C29.5767 28.9446 33.6139 27.5394 37.5865 27.7655Z" fill="#F52E5E"/>
<path d="M62.7785 29.8652C67.8654 40.5579 65.976 53.7219 57.1264 62.5733C45.8869 73.8151 27.671 73.8151 16.4314 62.5733C5.19184 51.3314 5.19184 33.1118 16.4314 21.8699C25.281 13.0186 38.4422 11.1449 49.1328 16.2167L55.0594 10.2889C41.0099 2.22897 22.7618 4.19953 10.7793 16.2006C-3.59311 30.5759 -3.59311 53.8673 10.7793 68.2265C25.1518 82.6019 48.4384 82.6019 62.7947 68.2265C74.7932 56.2255 76.7634 37.9736 68.7051 23.9213L62.7785 29.8652Z" fill="#F52E5E"/>
</svg>
