<svg width="361" height="437" viewBox="0 0 361 437" fill="none" xmlns="http://www.w3.org/2000/svg">
<g clip-path="url(#clip0)">
<path d="M0.689765 106.121C1.07607 105.099 2.29016 104.104 2.84202 103.303C14.0172 92.1963 9.57473 80.399 12.1961 66.7781C12.472 65.5072 12.5272 64.0153 13.3826 62.9654C13.3826 62.772 13.4654 62.5786 13.6309 62.3852C14.0724 61.9984 14.5967 62.2194 15.0382 62.4128C19.5634 64.2087 24.0611 65.9769 28.4484 68.1043C29.7177 69.1542 34.712 71.0053 35.0983 72.9117C35.5122 72.9393 35.7605 73.6024 35.4294 73.8787C35.4018 73.9892 35.3742 74.0721 35.3742 74.1826C35.3742 74.1549 35.3742 74.1273 35.3742 74.0721C35.3742 74.1549 35.3466 74.2655 35.3466 74.3483V74.3207C35.3191 95.2631 36.9195 106.978 17.9354 120.654C17.8802 120.626 17.8251 120.626 17.7699 120.598C17.4939 120.902 17.1076 121.068 16.6661 120.902C12.1685 119.106 8.33304 115.929 5.15984 112.338C4.16649 111.371 -2.04195 107.199 0.689765 106.121Z" fill="white"/>
<path d="M37.3609 208.153C37.2781 207.932 37.2781 207.739 37.3609 207.545C37.6644 203.539 44.4247 193.648 46.0803 192.294C52.5371 184.835 65.2023 183.122 68.5687 173.231C66.4992 168.7 83.2758 177.292 84.1587 178.397C84.8762 178.895 86.0903 179.834 86.7249 180.829C86.7801 180.829 86.8353 180.801 86.9181 180.801C89.2635 181.657 86.3386 185.829 85.9799 187.459C83.0274 195.499 76.4603 201.108 69.3689 205.501C64.3469 208.43 60.0976 212.629 56.5381 217.188C55.7103 218.238 55.2412 220.337 53.6684 220.337C49.5846 218.238 46.0251 215.171 42.2725 212.519C41.6102 211.966 39.1545 210.474 37.968 209.12C37.6093 208.927 37.4161 208.595 37.3609 208.153Z" fill="white"/>
<path d="M111.476 19.0913C111.559 16.9915 111.283 14.9194 110.786 12.8749C110.786 12.0184 108.937 8.73061 110.262 8.78587C112.166 6.76899 120.471 4.0614 121.52 3.6746C123.093 3.45357 129.687 0.276291 132.447 0.469691C132.695 0.193406 132.971 0.359177 133.219 0.690719C133.468 0.828861 133.606 1.04989 133.633 1.38143C133.716 1.57483 133.799 1.7406 133.854 1.85112C141.994 15.1128 131.647 29.9217 133.44 44.0675C133.357 45.6147 135.206 49.013 133.109 49.3721C132.805 51.1127 129.55 51.6929 128.225 52.6323C123.313 54.5939 118.457 57.0529 113.325 58.2132C113.132 58.1856 112.938 58.1304 112.828 58.0475C112.773 58.0475 112.718 58.0475 112.663 58.0475C110.538 56.8871 109.931 50.5602 109.131 48.1288C106.978 38.376 110.483 28.7336 111.476 19.0913Z" fill="white"/>
<path d="M146.657 95.8986C146.657 95.871 146.685 95.871 146.685 95.8433C146.464 94.1304 149.085 91.3951 149.665 90.0413C151.9 86.0076 153.141 81.587 154.245 77.1388C156.121 69.3752 159.405 61.4735 165.034 55.7267C165.531 55.1189 168.152 52.5771 169.614 52.0522C170.359 50.8641 171.905 52.1627 172.788 52.7705C175.437 54.7045 178.113 56.6109 180.679 58.7106C182.694 60.4512 187.605 62.3852 184.57 65.4796C177.672 74.4312 176.402 86.201 171.629 96.2578C170.663 98.3575 169.394 100.292 168.345 102.336C168.207 103.193 167.435 103.966 166.524 103.745C164.013 102.971 143.87 99.6561 146.657 95.8986Z" fill="white"/>
<path d="M195.193 46.1672C195.11 45.7804 195.138 45.5041 195.276 45.3384C195.193 41.9953 199.249 38.7904 201.346 36.5249C210.48 27.7666 225.076 28.2916 234.072 19.4781C235.175 17.6822 236.279 18.1519 236.39 19.1742C238.625 20.8043 240.39 23.2632 242.101 25.3906C242.074 25.3353 242.046 25.3077 241.991 25.2801C243.481 27.0483 244.888 28.8441 246.213 30.7505C247.482 32.1319 248.586 34.0659 246.985 35.6408C246.654 35.9999 246.268 36.663 245.854 37.1051C245.799 37.2156 245.744 37.3261 245.633 37.4366C244.916 38.155 244.116 38.7628 243.315 39.3982C237.631 43.4873 230.54 44.9239 224.442 48.2946C220.137 50.8088 215.86 53.7927 212.797 57.7988C212.687 58.1856 212.218 58.4619 211.887 58.2409C211.749 58.2685 211.639 58.2685 211.501 58.2685C210.562 57.9922 209.817 57.2463 208.962 56.7766L208.934 56.7489C204.326 53.6822 200.325 49.7589 195.745 46.6645C195.441 46.775 195.165 46.4711 195.193 46.1672Z" fill="white"/>
<path d="M310.56 143.502C310.201 138.916 311.332 134.413 312.767 130.103C316.327 120.626 326.012 114.907 328.44 105.126C328.385 104.905 328.44 104.712 328.578 104.546C328.771 103.607 328.937 102.612 328.992 101.59C329.019 101.12 329.13 100.126 329.378 99.435C328.771 97.0037 342.512 98.1365 344.03 98.2746C346.596 98.8824 350.073 98.6338 351.949 100.595C353.936 106.757 352.639 113.332 350.239 119.189C350.239 119.217 350.239 119.217 350.211 119.245C350.183 119.328 350.156 119.383 350.128 119.466C350.128 119.493 350.101 119.521 350.101 119.521C347.59 125.572 342.485 130.158 339.946 136.181C338.539 139.552 337.96 143.143 336.939 146.624C336.718 147.122 336.718 147.868 336.525 148.476C336.828 149.47 335.835 150.741 334.648 150.327C330.592 149.608 326.481 149.083 322.508 147.951C322.563 147.978 322.618 147.978 322.673 148.006C320.3 147.094 311.139 145.657 310.56 143.502Z" fill="white"/>
<path d="M340.912 208.319C345.272 216.442 351.977 222.934 356.06 231.251C356.833 232.3 362.269 243.545 360.724 245.01C361.055 245.479 361 246.253 360.531 246.612C353.908 250.038 346.568 252.359 339.505 254.624C339.449 254.597 339.394 254.569 339.367 254.541C339.201 254.541 339.008 254.514 338.76 254.431C334.924 248.242 332.303 241.197 328.136 235.119C323.804 227.521 317.513 220.476 315.802 211.717C315.802 211.469 315.885 211.165 316.051 210.999C316.106 210.971 316.133 210.916 316.189 210.888C316.989 210.225 317.982 209.756 319.003 209.341C320.079 208.899 321.21 208.485 322.176 207.905C322.149 207.932 322.093 207.96 322.066 207.96C326.619 205.39 331.613 203.567 336.083 200.997C338.208 201.605 339.505 206.468 340.912 208.319C340.912 208.347 340.912 208.347 340.912 208.319Z" fill="white"/>
<path d="M184.57 65.452C177.672 74.4036 176.402 86.1734 171.629 96.2301C170.663 98.3299 169.394 100.264 168.345 102.308C168.207 103.165 167.434 103.938 166.524 103.717C163.985 102.971 143.87 99.6561 146.657 95.9262C146.657 95.8986 146.684 95.8986 146.684 95.871C147.043 95.3736 147.678 95.125 148.257 95.4289C148.45 95.5394 148.644 95.6223 148.864 95.7052C150.051 96.2578 151.237 96.7274 152.479 97.1695C153.003 97.3629 153.555 97.5287 154.107 97.7221C156.756 98.5786 159.488 99.214 162.192 99.9047C162.44 99.96 162.716 100.043 162.964 100.098C163.047 100.126 163.13 100.153 163.24 100.181C164.427 100.485 165.641 100.595 166.8 100.982C167.462 99.9047 168.069 98.7996 168.621 97.6668C168.924 97.059 169.2 96.4788 169.476 95.871C173.505 86.8088 174.967 76.5586 179.934 68.0214C180.265 67.4412 180.624 66.861 181.01 66.3085C181.59 65.4243 182.224 64.5679 182.914 63.739C181.728 62.9102 180.596 62.0537 179.465 61.1972C179.106 60.9485 178.775 60.6722 178.417 60.396C176.982 59.2908 175.547 58.1857 174.084 57.0805C173.753 56.8319 173.45 56.6109 173.119 56.3622C172.981 56.1964 172.815 56.0583 172.622 55.8925C171.767 55.2018 170.525 54.6216 169.918 53.7651C169.614 53.3507 169.449 52.9086 169.532 52.3561C169.587 52.2456 169.642 52.135 169.697 52.0522C170.442 50.8641 171.987 52.1627 172.87 52.7705C175.519 54.7045 178.196 56.6109 180.762 58.7106C182.693 60.4236 187.605 62.3852 184.57 65.452Z" fill="#080A1E"/>
<path d="M170.553 53.1296C170.304 53.323 170.084 53.544 169.835 53.7651C168.842 54.6768 167.876 55.6438 166.993 56.6661C166.634 57.0805 166.303 57.4949 165.945 57.9094C162.109 62.6891 159.405 68.3529 157.501 74.1549C156.204 79.653 154.714 85.1511 152.148 90.1518C151.9 90.6491 151.624 91.1465 151.348 91.6438C150.713 92.7765 150.023 93.854 149.251 94.9039C149.113 95.125 148.975 95.4012 148.809 95.6775C148.423 96.3959 147.926 97.0589 147.071 96.6721C146.795 96.4235 146.657 96.1472 146.629 95.8433C146.409 94.1303 149.03 91.3951 149.609 90.0413C151.844 86.0075 153.086 81.587 154.19 77.1388C156.066 69.3752 159.35 61.4734 164.979 55.7267C165.475 55.1189 168.097 52.577 169.559 52.0521C170.332 51.8034 170.746 52.0245 170.553 53.1296Z" fill="#080A1E"/>
<path d="M152.617 99.5732C150.989 98.6614 154.604 94.9039 151.927 91.7267C150.686 92.1411 150.686 88.7428 152.7 90.5386C154.493 92.2792 154.935 95.0421 154.217 97.3905C153.914 98.1917 153.804 99.8218 152.617 99.5732Z" fill="#080A1E"/>
<path d="M162.413 101.424C160.454 99.9876 165.531 96.5064 166.938 96.1472C167.766 96.0091 168.787 95.5118 169.587 95.8986C170.194 96.3959 169.863 97.501 169.09 97.6392C166.607 97.6392 164.206 98.7996 162.689 100.761C162.909 100.982 162.744 101.424 162.413 101.424Z" fill="#080A1E"/>
<path d="M169.807 58.6553C169.531 58.6553 169.228 58.6277 168.952 58.6001C168.979 58.6001 169.035 58.6001 169.062 58.6001C169.007 58.6001 168.924 58.6001 168.869 58.5725H168.897C168.869 58.5725 168.814 58.5725 168.786 58.5725H168.814C168.814 58.5725 168.814 58.5725 168.786 58.5725H168.814C167.876 58.5725 163.847 57.716 165.31 56.3622C166.827 56.6385 168.372 56.97 169.945 56.8043C171.104 56.6937 172.291 56.2241 173.146 55.4228C173.505 55.1742 174.001 55.2571 174.25 55.6162C174.884 56.8871 173.201 57.7989 172.235 58.158H172.263C172.235 58.158 172.208 58.1857 172.18 58.1857H172.208C171.435 58.4896 170.607 58.683 169.807 58.6553Z" fill="#080A1E"/>
<path d="M179.547 67.8279C176.54 66.8609 177.809 57.633 179.575 60.4511C179.685 60.6998 179.658 61.0313 179.382 61.1418C179.216 63.0206 179.327 64.9822 180.927 66.2531C181.534 67.1096 180.486 68.5186 179.547 67.8279Z" fill="#080A1E"/>
<path d="M165.172 82.775C160.039 81.2555 162.578 73.2708 167.6 74.376C169.118 73.409 170.387 76.006 170.69 77.2217V77.1941C170.69 77.2217 170.718 77.2769 170.718 77.3046C170.718 77.2769 170.69 77.2493 170.69 77.2217C171.628 80.3161 168.29 83.6868 165.172 82.775ZM166.496 80.8134C168.869 80.7305 170.083 77.8019 168.069 76.31C167.655 76.0889 167.186 75.8403 167.214 75.3153C163.544 75.1772 162.302 80.7029 166.496 80.8134Z" fill="#080A1E"/>
<path d="M235.7 20.9701C235.562 21.1082 235.424 21.2464 235.286 21.3569C234.292 22.3239 233.216 23.1803 232.112 23.9539C231.754 24.2026 231.423 24.4236 231.036 24.6447C221.461 30.6953 208.576 31.3031 200.656 40.089L200.629 40.1166C200.27 40.4758 199.911 40.835 199.553 41.2218C199.277 41.5257 199.001 41.8296 198.752 42.1335C197.952 43.1005 197.262 44.1504 196.793 45.3384C196.738 45.5042 196.655 45.6699 196.628 45.8357C196.49 46.3607 195.8 46.6646 195.386 46.2225C195.303 45.9186 195.276 45.6147 195.276 45.3108C195.193 41.9677 199.249 38.7628 201.346 36.4973C210.479 27.7391 225.076 28.264 234.072 19.4505C235.175 17.6546 236.279 18.1243 236.389 19.1466C236.445 19.6992 236.251 20.3622 235.7 20.9701Z" fill="#080A1E"/>
<path d="M245.826 37.1051C245.771 37.2156 245.716 37.3261 245.606 37.4367C244.888 38.155 244.088 38.7628 243.288 39.3983C237.604 43.4873 230.512 44.924 224.414 48.2947C220.11 50.8089 215.833 53.7927 212.77 57.7989C212.66 58.1857 212.19 58.4619 211.859 58.2409C211.804 58.2133 211.777 58.158 211.721 58.1028C211.694 57.4121 211.887 56.7213 212.246 56.0859C212.77 55.0913 213.653 54.1795 214.563 53.2954C214.895 52.9915 215.198 52.6876 215.529 52.4113C216.247 51.7482 216.936 51.1128 217.433 50.5326C223.697 44.5372 232.333 42.769 239.728 38.7628C240.28 38.4589 240.804 38.155 241.329 37.8511C241.908 37.4919 242.488 37.1327 243.039 36.746C242.984 36.7736 242.957 36.8012 242.902 36.8565C243.371 36.5249 243.84 36.0276 244.364 35.7513C244.585 35.6408 244.833 35.5579 245.109 35.5856C245.882 35.6408 246.102 36.4973 245.826 37.1051Z" fill="#080A1E"/>
<path d="M246.985 35.6407C246.654 35.9999 246.268 36.663 245.854 37.105C245.44 37.5195 244.971 37.7129 244.391 37.2156C243.95 36.6906 244.088 36.1657 244.419 35.6684C244.695 35.2539 245.054 34.8671 245.33 34.5356C245.33 34.5356 245.33 34.5356 245.357 34.508C245.357 34.508 245.385 34.4803 245.385 34.4527C245.495 34.3146 245.578 34.1764 245.688 34.0383C244.833 33.0989 244.033 32.1043 243.288 31.082C243.067 30.8057 242.874 30.5295 242.681 30.2532C241.467 28.5678 240.335 26.8549 239.121 25.1419C238.845 24.7551 238.569 24.3683 238.293 24.0091C238.293 23.9815 238.266 23.9815 238.266 23.9539C238.266 23.9539 238.266 23.9263 238.238 23.9263C237.438 22.904 236.555 21.9646 235.755 20.9424C235.644 20.8042 235.534 20.6661 235.424 20.5003C235.12 20.5556 234.927 20.2793 234.927 20.003C234.32 19.5333 234.568 18.4834 235.368 18.4558C235.727 18.6492 236.086 18.8979 236.445 19.1465C238.68 20.7766 240.446 23.2355 242.156 25.3629C242.129 25.3077 242.101 25.28 242.046 25.2524C243.536 27.0206 244.943 28.8165 246.268 30.7229C247.482 32.1319 248.586 34.0659 246.985 35.6407Z" fill="#080A1E"/>
<path d="M211.887 58.2132C211.749 58.2409 211.639 58.2409 211.501 58.2409C210.562 57.9646 209.817 57.2186 208.962 56.7489L208.934 56.7213C204.326 53.6545 200.325 49.7313 195.745 46.6369C195.441 46.8027 195.193 46.4988 195.193 46.1949C195.11 45.8081 195.138 45.5318 195.276 45.366C195.497 45.0621 196.048 45.1173 196.821 45.4213C197.511 45.6975 198.394 46.1672 199.36 46.7474C199.829 47.0513 200.325 47.3553 200.85 47.6868C203.112 49.2064 205.623 51.0851 207.444 52.4389C207.858 52.7428 208.217 53.0191 208.548 53.2678C209.238 53.7927 209.762 54.1242 209.955 54.2347L209.983 54.2624C210.783 54.8426 211.556 55.4504 212.273 56.1135C212.384 56.224 212.494 56.3069 212.577 56.4174C213.018 56.9976 212.604 58.0198 211.887 58.2132Z" fill="#080A1E"/>
<path d="M199.746 48.7366C198.339 48.488 200.381 44.7857 199.139 42.8517C199.139 42.8794 199.167 42.907 199.167 42.9346C199.029 42.6583 198.891 42.3544 198.698 42.1058C198.532 42.1058 198.422 41.9953 198.339 41.8847C197.759 40.4204 199.581 40.8625 199.994 41.8571C200.988 43.1004 201.843 48.4327 199.746 48.7366Z" fill="#080A1E"/>
<path d="M207.168 53.5993C205.872 52.3008 210.01 51.3614 210.893 51.1956C212.08 50.9746 216.716 51.0299 215.253 53.102C214.287 53.6269 213.128 52.5771 212.08 52.66C210.369 52.4666 208.741 53.2125 207.168 53.5993Z" fill="#080A1E"/>
<path d="M234.044 26.0813C232.83 25.7221 230.457 25.2248 230.76 23.5671C230.871 23.3737 231.119 23.2356 231.312 23.4014C232.582 24.7551 234.955 24.7551 236.665 24.4512C236.638 24.4512 236.61 24.4789 236.555 24.4789C237.134 24.3131 237.769 24.2302 238.293 23.8987C238.597 23.5948 238.79 23.1251 239.259 23.0422C239.949 22.9317 240.225 23.8158 239.866 24.2855C238.68 26.1642 236.031 26.4405 234.044 26.0813Z" fill="#080A1E"/>
<path d="M239.811 38.9286C238.873 36.0552 240.252 32.2701 242.543 30.3361C243.315 29.5902 243.95 31.0821 243.012 31.165C241.411 32.9056 240.942 35.5856 241.384 37.8787C241.715 38.7905 240.473 39.8403 239.811 38.9286Z" fill="#080A1E"/>
<path d="M220.551 43.4872C215.419 43.0451 216.578 35.171 221.407 35.4473C227.201 33.9277 225.877 44.4818 220.551 43.4872ZM221.241 41.4979C223.117 41.6361 224.552 38.7627 223.09 37.5194C222.29 37.2155 220.937 37.4642 221.048 36.2209C217.847 36.663 217.654 41.7742 221.241 41.4979Z" fill="#080A1E"/>
<path d="M112.828 58.1028C112.772 58.1028 112.717 58.1028 112.662 58.1028C110.537 56.9424 109.93 50.6155 109.13 48.1842C107.005 38.4037 110.482 28.7613 111.476 19.119C111.558 17.0192 111.282 14.9471 110.786 12.9026C110.786 12.0461 108.937 8.7583 110.261 8.81355C110.372 8.81355 110.482 8.84118 110.62 8.89644C110.896 9.3385 111.117 9.78055 111.338 10.2226C111.862 11.2725 112.248 12.2947 112.552 13.3446C112.69 13.8419 112.828 14.3669 112.938 14.8642C115.035 25.2525 108.496 36.1934 112.083 50.5602C112.221 51.1128 112.359 51.6377 112.524 52.1903C112.883 53.406 113.324 54.6216 113.849 55.8925C113.931 56.0859 114.014 56.2793 114.097 56.4451C114.235 57.2187 113.628 58.1028 112.828 58.1028Z" fill="#080A1E"/>
<path d="M133.108 49.3998C132.943 49.4274 132.75 49.4274 132.501 49.4274C131.922 49.234 131.784 48.6262 131.646 48.0736C131.618 47.9631 131.591 47.8526 131.563 47.7421C131.315 46.6646 131.122 45.5871 130.984 44.5096C130.929 44.0122 130.873 43.5149 130.846 42.99C130.128 32.132 135.178 21.4674 134.874 10.6094C134.847 9.53188 134.626 8.50962 134.322 7.515C134.157 7.01769 133.991 6.52037 133.798 6.02306C133.412 4.91792 132.97 3.84041 132.639 2.70764C132.446 2.07218 132.308 1.43673 132.225 0.801273C132.308 0.635502 132.363 0.524988 132.446 0.442103C132.694 0.165818 132.97 0.331589 133.219 0.663131C133.384 0.85653 133.522 1.13282 133.633 1.38147C133.715 1.57487 133.798 1.74064 133.853 1.85116C141.993 15.1128 131.646 29.9217 133.44 44.0675C133.329 45.6147 135.205 49.013 133.108 49.3998Z" fill="#080A1E"/>
<path d="M133.109 49.3998C132.805 51.1404 129.549 51.7206 128.225 52.66C123.313 54.6216 118.457 57.0805 113.324 58.2409C113.131 58.2133 112.938 58.158 112.828 58.0751C112.027 57.5778 112.469 56.1412 113.517 55.9754C113.628 55.9201 113.738 55.8649 113.849 55.8372C115.008 55.3123 116.194 54.7874 117.408 54.29C117.932 54.069 118.457 53.848 118.981 53.627C119.836 53.2678 120.664 52.9086 121.519 52.5218C123.396 51.693 125.355 50.9746 127.259 50.201C127.866 49.9524 128.473 49.6761 129.08 49.3998C129.715 49.0959 130.322 48.792 130.929 48.4881C131.149 48.3223 131.425 48.1565 131.701 48.0736C132.253 47.9079 132.805 47.9631 133.109 48.5709C133.136 48.8749 133.164 49.1511 133.109 49.3998Z" fill="#080A1E"/>
<path d="M133.633 1.3814C133.633 2.12737 133.219 2.48654 132.64 2.7352C132.005 3.01148 131.205 3.09437 130.653 3.26014C129.798 3.53643 128.97 3.81271 128.114 4.089C127.673 4.22714 127.204 4.39291 126.762 4.53105C123.396 5.63619 120.002 6.74133 116.691 7.98461C116.36 8.12276 116.001 8.23327 115.67 8.37141C115.284 8.50956 114.925 8.67533 114.539 8.81347C113.462 9.17264 112.442 9.78047 111.338 10.112C111.117 10.1949 110.869 10.2502 110.648 10.2778C109.682 9.86335 109.682 9.33841 110.262 8.73058C112.166 6.7137 120.471 4.00611 121.52 3.61931C123.092 3.45354 129.687 0.276262 132.446 0.469661C132.75 0.49729 133.026 0.552547 133.219 0.690689C133.467 0.828832 133.605 1.04986 133.633 1.3814Z" fill="#080A1E"/>
<path d="M112.635 14.8918C110.482 13.5103 115.449 12.0184 115.532 9.78048C115.78 8.924 115.615 8.03989 115.615 7.1834C116.47 5.82961 116.774 8.3438 116.774 8.97925C116.829 11.3277 114.98 14.4773 112.635 14.8918Z" fill="#080A1E"/>
<path d="M131.536 8.09516C128.473 8.15042 124.693 2.7076 127.259 2.65234C127.314 2.67997 127.341 2.7076 127.369 2.73523C128.252 5.33231 131.149 6.74136 133.771 6.02302C134.157 5.99539 134.46 6.35456 134.516 6.71373C134.654 8.26093 132.612 8.26093 131.536 8.09516Z" fill="#080A1E"/>
<path d="M117.518 54.594C116.415 52.6323 113.931 52.1074 111.834 52.1626C110.482 53.2125 109.572 49.4827 115.007 50.6154C119.008 50.9746 120.25 55.6715 117.518 54.594Z" fill="#080A1E"/>
<path d="M127.121 50.0629C126.459 47.6039 128.114 44.7858 130.101 43.4044C130.736 42.9623 132.64 42.3269 132.281 43.7359C130.184 44.6753 128.666 46.8856 128.997 49.3169C129.163 50.3391 127.645 51.1404 127.121 50.0629Z" fill="#080A1E"/>
<path d="M121.437 35.4198C116.498 34.8948 117.105 27.4075 121.327 26.2747C129.053 23.4566 129.218 36.8564 121.437 35.4198ZM122.789 33.4305C125.355 33.4581 126.597 29.7836 124.665 28.2087C123.672 27.3799 122.209 28.1258 121.271 27.5456C118.374 29.0928 119.064 34.0107 122.789 33.4305Z" fill="#080A1E"/>
<path d="M69.534 173.01C69.534 173.314 69.5065 173.59 69.4789 173.894C69.3685 174.971 69.0926 175.966 68.6787 176.905C68.5131 177.292 68.32 177.679 68.0992 178.066C65.6986 182.182 60.6767 185.083 56.8412 187.515C50.7432 190.664 45.7488 195.527 42.6584 201.66C42.6032 201.716 42.548 201.799 42.4653 201.881C42.2445 202.158 42.0238 202.545 41.803 203.014C41.1408 204.423 40.5337 206.44 39.8163 207.794C39.2645 208.816 38.685 209.452 37.9676 209.175C37.9676 209.175 37.94 209.175 37.94 209.148C37.6089 208.982 37.4157 208.65 37.3605 208.208C37.3329 208.015 37.3329 207.822 37.3605 207.601C37.6641 203.594 44.4244 193.703 46.0799 192.35C52.5367 184.89 65.2019 183.177 68.5683 173.286C68.6511 173.01 68.7338 172.733 68.8166 172.457C69.2305 172.153 69.534 172.623 69.534 173.01Z" fill="#080A1E"/>
<path d="M85.9523 187.459C82.9998 195.499 76.4327 201.108 69.3413 205.501C64.3193 208.43 60.07 212.629 56.5105 217.188C55.6827 218.238 55.2136 220.337 53.6408 220.337C49.557 218.238 45.9975 215.171 42.2449 212.519C41.5827 211.966 39.1269 210.474 37.9404 209.12C37.6644 208.789 37.4437 208.485 37.3609 208.181C37.2781 207.96 37.2781 207.766 37.3609 207.573C37.4713 207.297 37.7196 207.076 38.1887 206.91C38.7406 207.186 39.2924 207.49 39.8443 207.794C40.8652 208.374 41.8586 208.954 42.8519 209.59C43.3762 209.921 43.9005 210.253 44.4247 210.612C46.1355 211.773 47.8187 212.988 49.4743 214.232C49.8882 214.535 50.3021 214.839 50.6884 215.143C51.7645 215.944 52.813 216.773 53.8892 217.575C54.6894 216.331 55.5447 215.116 56.4829 213.983C57.0072 213.347 57.559 212.712 58.1385 212.076C60.5115 209.479 63.188 207.159 65.9473 205.086C72.9836 200.749 80.1026 195.665 83.3861 187.874C83.5793 187.404 83.7724 186.907 83.938 186.41C84.076 186.216 84.1863 185.995 84.2967 185.719C84.6278 184.835 84.821 183.647 85.1245 182.68C85.428 181.74 85.8695 180.967 86.7249 180.856C86.7801 180.856 86.8353 180.829 86.918 180.829C89.2359 181.685 86.3386 185.829 85.9523 187.459Z" fill="#080A1E"/>
<path d="M86.7799 183.066C86.4488 183.37 85.9521 183.426 85.5658 183.149C85.4279 182.983 85.2623 182.818 85.0968 182.652C84.269 181.795 83.3584 181.022 82.4202 180.331C82.0615 180.082 81.7028 179.834 81.3441 179.585C79.3298 178.287 77.0948 177.237 74.8597 176.242C74.2803 175.993 73.7008 175.745 73.1214 175.469C71.8797 174.944 70.6656 174.419 69.4791 173.838C69.2032 173.7 68.9272 173.59 68.6789 173.452C68.6237 173.369 68.5685 173.286 68.5409 173.175C66.4715 168.644 83.248 177.237 84.131 178.342C84.8484 178.839 86.0625 179.779 86.6972 180.773C87.1938 181.574 87.3594 182.376 86.7799 183.066Z" fill="#080A1E"/>
<path d="M69.1205 178.314C68.2927 178.37 66.6647 177.292 68.0444 176.767C68.7342 176.961 69.4516 176.905 70.1415 176.74C71.3004 176.408 72.4869 175.994 73.4802 175.303C73.7286 174.833 74.2252 174.225 74.8323 174.557C76.6534 176.961 70.8037 178.563 69.1205 178.314Z" fill="#080A1E"/>
<path d="M83.1376 187.708C81.1509 185.498 79.6333 181.077 82.0063 178.729C82.6409 178.536 83.0824 179.503 82.5305 179.862C81.8683 181.989 82.9444 184.282 84.3793 185.829C85.4002 186.603 84.2413 188.509 83.1376 187.708Z" fill="#080A1E"/>
<path d="M43.431 211.137C41.5271 210.474 44.6175 206.689 42.7688 204.534C42.7964 204.561 42.7964 204.589 42.824 204.617C42.4101 203.843 41.8582 203.125 41.4995 202.324C41.7203 199.865 44.7003 204.34 44.8659 205.169C45.2798 206.634 45.4177 210.971 43.431 211.137Z" fill="#080A1E"/>
<path d="M49.3911 215.668C47.2664 214.038 54.3027 211.634 55.5719 211.717C56.6757 211.662 59.0487 211.69 58.8003 213.292C58.69 213.789 58.3037 214.149 57.807 214.176C54.8821 213.375 52.0124 214.48 49.3911 215.668Z" fill="#080A1E"/>
<path d="M61.5876 200.528C56.0966 198.594 58.8283 189.255 64.816 192.46C69.3137 193.759 65.9473 201.854 61.5876 200.528ZM62.7189 198.262C64.1538 198.235 65.4506 196.439 64.8712 195.085C64.5401 194.532 63.7675 194.146 63.9882 193.372C59.7665 192.129 59.1318 197.82 62.7189 198.262Z" fill="#080A1E"/>
<path d="M334.676 150.327C330.62 149.608 326.508 149.083 322.535 147.951C322.59 147.978 322.645 147.978 322.7 148.006C320.3 147.094 311.139 145.657 310.532 143.502C310.173 138.916 311.304 134.413 312.739 130.103C316.299 120.626 325.984 114.907 328.412 105.126C328.467 104.933 328.523 104.74 328.55 104.546C328.743 103.607 328.909 102.612 328.964 101.59C328.992 101.12 329.102 100.126 329.35 99.435C329.599 98.7442 330.013 98.3574 330.675 99.1587C330.73 99.5731 330.758 99.9875 330.785 100.374C330.84 101.452 330.785 102.529 330.647 103.607C330.564 104.298 330.454 104.961 330.316 105.651C330.068 106.895 329.737 108.138 329.406 109.326C324.853 119.963 316.851 124.024 313.953 134.855C313.815 135.352 313.705 135.849 313.595 136.374C313.208 138.17 312.96 140.159 312.905 142.37C313.76 142.646 314.588 142.895 315.443 143.143C316.078 143.337 316.713 143.53 317.347 143.696C321.017 144.746 324.742 145.657 328.495 146.376C328.936 146.459 329.378 146.542 329.792 146.624C330.068 146.68 330.344 146.735 330.62 146.763C332.027 147.067 333.489 147.122 334.897 147.398C335.255 147.481 335.642 147.564 336 147.702C336.304 147.895 336.469 148.144 336.552 148.42C336.828 149.47 335.862 150.741 334.676 150.327Z" fill="#080A1E"/>
<path d="M350.266 119.217C350.266 119.245 350.266 119.245 350.238 119.272C350.211 119.355 350.183 119.41 350.156 119.493C350.156 119.521 350.128 119.549 350.128 119.549C347.617 125.599 342.512 130.186 339.974 136.209C338.566 139.579 337.987 143.171 336.966 146.652C336.745 147.149 336.745 147.895 336.552 148.503C336.387 149.028 336.111 149.443 335.421 149.415C334.897 149.525 334.786 148.752 334.897 147.509C335.007 146.376 335.31 144.884 335.697 143.309C335.862 142.591 336.083 141.845 336.276 141.099C337.132 138.004 338.125 135.103 338.428 134.578C343.174 125.765 350.238 118.25 350.514 108.221C350.542 107.613 350.514 107.005 350.487 106.397C350.404 105.071 350.211 103.717 349.88 102.281C348.528 101.977 347.148 101.728 345.768 101.535C345.409 101.48 345.023 101.424 344.664 101.397C341.795 101.037 338.898 100.872 336.028 100.761C335.973 100.761 335.945 100.761 335.89 100.761C335.586 100.706 335.283 100.678 334.952 100.651C333.6 100.595 332.082 100.789 330.813 100.457C330.316 100.319 329.875 100.098 329.488 99.7665C329.433 99.6837 329.406 99.6008 329.378 99.5179C328.771 97.0866 342.512 98.2194 344.03 98.3575C346.596 98.9653 350.073 98.7167 351.949 100.678C353.936 106.784 352.666 113.36 350.266 119.217Z" fill="#080A1E"/>
<path d="M315.995 145.215C313.981 144.608 318.092 138.64 312.795 135.905C312.822 135.932 312.822 135.932 312.85 135.96C311.939 134.717 313.484 134.413 314.395 135.159C317.182 136.043 319.031 144.663 315.995 145.215Z" fill="#080A1E"/>
<path d="M328.385 147.315C328.274 144.138 333.269 141.265 336.166 141.071C338.263 140.74 337.877 143.475 336 143.226C331.089 143.42 329.185 148.558 328.385 147.315Z" fill="#080A1E"/>
<path d="M336.138 99.9047C336.138 100.181 336.083 100.43 336.028 100.706C335.449 103.192 332.855 105.182 330.344 105.679C329.819 105.79 329.295 105.817 328.771 105.79C328.578 105.541 328.495 105.32 328.467 105.126C328.412 104.905 328.467 104.712 328.605 104.546C328.964 104.077 329.875 103.856 330.675 103.635C331.061 103.524 331.448 103.413 331.668 103.275C331.641 103.275 331.585 103.303 331.558 103.331C332.882 102.806 334.29 101.894 334.924 100.595C335.117 100.209 335.255 99.7665 335.311 99.2968C335.697 98.5785 336.221 99.3797 336.138 99.9047Z" fill="#080A1E"/>
<path d="M350.569 108.166C341.988 107.558 344.83 97.2248 345.989 100.264C344.858 103.966 348.334 105.983 351.37 106.536C351.949 107.143 351.397 108.304 350.569 108.166Z" fill="#080A1E"/>
<path d="M331.006 128.058C324.329 126.953 329.847 114.714 335.256 119.687C336.276 119.162 336.608 120.847 336.884 121.538C337.463 124.936 334.759 128.998 331.006 128.058ZM332.827 126.207C334.924 126.097 336.497 123.168 335.311 121.4C335.062 121.427 334.842 121.206 334.842 120.958C333.986 119.853 331.806 119.935 330.868 120.93C329.157 123.14 329.268 126.594 332.827 126.207Z" fill="#080A1E"/>
<path d="M339.339 254.541C339.173 254.541 338.98 254.514 338.732 254.431C334.896 248.242 332.275 241.197 328.108 235.119C323.776 227.521 317.485 220.476 315.774 211.717C315.774 211.469 315.857 211.165 316.023 210.999C316.078 210.971 316.106 210.916 316.161 210.888C316.271 210.833 316.381 210.778 316.492 210.778C316.906 210.75 317.209 211.275 317.43 211.911C317.761 212.767 317.982 213.845 318.285 214.287C318.451 214.674 318.644 215.088 318.837 215.475C319.058 215.972 319.306 216.469 319.555 216.967C323.666 225.007 329.516 232.079 333.599 240.175C333.682 240.313 333.737 240.423 333.793 240.561C333.82 240.589 333.848 240.644 333.848 240.672C333.848 240.7 333.875 240.7 333.875 240.727C333.875 240.755 333.903 240.782 333.903 240.81C333.958 240.948 334.041 241.059 334.096 241.197C335.338 243.435 336.414 245.756 337.462 248.104C337.6 248.408 337.738 248.712 337.876 249.016C338.373 250.093 338.87 251.198 339.394 252.276C339.587 252.469 339.753 252.773 339.835 253.077C340.139 253.74 340.001 254.514 339.339 254.541Z" fill="#080A1E"/>
<path d="M360.724 245.01C360.503 245.231 360.089 245.231 359.51 244.927V244.899C359.068 243.435 358.572 241.998 358.02 240.561C357.799 240.009 357.606 239.484 357.358 238.931C355.15 233.599 352.225 228.571 348.887 223.819C345.106 219.426 341.712 214.756 338.925 209.728C338.567 209.12 338.236 208.485 337.904 207.849C337.187 206.468 336.525 205.059 335.89 203.65C334.814 204.506 333.572 205.142 332.303 205.694C331.834 205.888 331.393 206.081 330.923 206.274C329.599 206.799 328.275 207.297 327.06 207.987C326.509 208.153 324.825 209.037 322.949 209.921C322.535 210.115 322.121 210.308 321.707 210.502C320.135 211.192 318.589 211.8 317.486 211.938C316.547 212.049 315.968 211.828 316.051 211.027C316.106 210.999 316.134 210.944 316.189 210.916C316.989 210.253 317.982 209.783 319.003 209.369C320.079 208.927 321.211 208.512 322.176 207.932C322.149 207.96 322.094 207.987 322.066 207.987C326.619 205.418 331.613 203.594 336.083 201.025C338.236 201.605 339.532 206.495 340.94 208.374V208.347C345.299 216.469 352.005 222.962 356.088 231.278C356.806 232.3 362.269 243.573 360.724 245.01Z" fill="#080A1E"/>
<path d="M360.531 246.612C353.908 250.038 346.569 252.359 339.505 254.624C339.45 254.597 339.394 254.569 339.367 254.541C339.146 254.403 339.036 254.265 339.036 254.099C339.036 253.795 339.367 253.436 339.946 253.022C340.691 252.497 341.878 251.889 343.23 251.309C343.699 251.116 344.168 250.894 344.665 250.701C348.417 249.154 352.777 247.69 353.412 247.275C353.66 247.192 353.881 247.109 354.129 247.027C354.488 246.916 354.847 246.778 355.205 246.667C356.668 246.142 358.13 245.617 359.51 244.871C359.675 244.789 359.841 244.706 359.979 244.595C360.31 244.595 360.586 244.733 360.751 244.982C361.055 245.479 361 246.253 360.531 246.612Z" fill="#080A1E"/>
<path d="M344.113 252.442C343.644 252.331 343.45 251.779 343.257 251.392C342.264 249.375 339.725 249.126 337.739 248.961C337.49 249.209 337.049 249.043 337.049 248.684C337.49 247.275 339.946 248.215 341.05 248.187C342.54 248.021 346.817 251.944 344.113 252.442Z" fill="#080A1E"/>
<path d="M354.46 247.607C351.452 243.601 359.813 234.981 358.709 240.009C356.585 241.473 354.736 243.877 355.067 246.64C356.171 246.778 355.205 248.297 354.46 247.607Z" fill="#080A1E"/>
<path d="M338.456 232.328C334.51 232.245 333.848 225.062 337.49 223.957C337.656 223.183 338.539 223.266 339.146 223.155C339.118 223.155 339.118 223.155 339.091 223.155C345.299 222.99 344.499 232.604 338.456 232.328ZM338.87 230.477C341.547 230.311 343.34 226.802 340.746 225.172C339.808 224.178 338.373 225.863 337.601 224.758C335.449 225.918 336.056 230.919 338.87 230.477Z" fill="#080A1E"/>
<path d="M318.948 217.133C316.961 216.11 320.355 214.812 320.631 213.624C321.679 212.298 321.514 210.557 322.011 209.065C324.273 208.015 321.79 215.309 320.797 215.834C320.327 216.387 319.776 217.16 318.948 217.133Z" fill="#080A1E"/>
<path d="M336.387 209.811C334.759 209.894 329.047 205.998 330.813 204.423C331.172 204.341 331.42 204.7 331.613 204.948C332.496 206.081 333.738 206.882 335.035 207.463C335.007 207.435 334.952 207.435 334.924 207.407C336.111 207.96 337.38 207.849 338.65 207.822C339.119 207.849 339.422 208.374 339.45 208.789C339.45 210.336 337.408 209.866 336.387 209.811Z" fill="#080A1E"/>
<path d="M295.301 102.778C295.052 100.899 293.397 100.126 291.631 99.5455C290.775 99.2416 289.892 98.993 289.147 98.6891C288.954 98.6062 288.789 98.5233 288.623 98.4404C285.753 97.4182 282.884 96.2854 280.097 95.0421C275.158 92.5279 269.667 91.8096 264.369 90.4281C264.176 90.3729 263.982 90.3176 263.789 90.29C263.624 89.8479 263.182 89.7098 262.768 89.7927C262.216 89.8756 261.665 90.29 261.692 90.8702C255.677 106.342 250.186 122.146 242.018 136.678C236.803 145.823 232.664 155.714 226.125 164.003C225.131 165.357 224.11 166.683 223.062 167.981C214.315 178.535 202.919 186.41 191.275 193.648C190.944 193.317 190.337 193.4 189.564 193.731C186.584 195.002 181.12 200.141 179.437 201.053C172.125 206.551 165.586 212.988 159.184 219.481C159.653 210.916 159.543 202.324 159.598 193.731C159.708 188.979 160.177 187.128 159.763 185.829C159.294 184.42 157.749 183.674 153.5 180.552C152.396 178.784 151.044 177.182 149.582 175.634C147.015 172.899 144.118 170.357 141.635 167.595C136.282 161.903 131.343 155.852 126.376 149.829C120.167 142.066 114.87 133.694 110.096 124.991C110.068 124.936 110.013 124.853 109.986 124.798C105.157 116.371 101.542 107.282 96.3546 99.1035C96.3271 99.0482 96.2995 99.0206 96.2719 98.9654C96.2995 98.993 96.3271 99.0206 96.3271 99.0482L96.3546 99.0759C96.3546 99.0482 96.3271 99.0482 96.3271 99.0206C95.6372 97.7221 94.0092 98.468 94.4507 99.8771C94.3403 99.9324 94.23 99.96 94.1196 99.9876C87.2489 102.64 80.5438 105.624 74.0871 109.16C73.6456 109.409 73.1765 109.658 72.735 109.906C71.4933 110.597 70.2792 111.315 69.0651 112.061C66.8577 113.222 68.872 116.261 69.4238 117.946C70.6655 120.902 71.4657 124.024 72.735 126.925C73.8663 128.942 76.2393 128.445 78.0053 129.136C81.1785 137.59 85.5934 145.547 90.1462 153.338C93.209 159.693 97.6239 165.191 101.708 170.882C111.448 184.614 120.774 198.621 127.976 213.9C124.362 223.266 128.776 232.77 132.336 241.418C132.364 241.501 132.391 241.584 132.419 241.667C132.777 242.523 133.081 243.407 133.412 244.291C129.687 260.592 127.342 277.197 123.341 293.442C123.313 293.553 123.285 293.663 123.258 293.774C122.982 294.824 122.651 295.874 122.292 296.896C121.906 297.946 121.464 298.968 120.995 299.99C120.029 302.09 118.898 304.107 117.684 306.096C116.911 307.726 115.753 309.163 114.704 310.627C114.594 310.765 114.483 310.931 114.373 311.069C113.931 311.705 113.49 312.368 113.104 313.031C113.021 313.169 112.938 313.335 112.855 313.501C112.745 313.749 112.635 313.998 112.524 314.247C112.497 314.33 112.469 314.412 112.441 314.495C112.386 315.131 112.552 315.6 112.828 315.932C113.242 316.402 113.904 316.54 114.511 316.346C115.035 316.181 115.504 315.766 115.78 315.103C116.139 316.181 116.553 317.231 116.994 318.28C117.16 318.667 117.325 319.054 117.491 319.413C119.229 323.226 121.354 326.818 123.313 330.52C123.396 330.686 123.479 330.824 123.589 330.99C123.01 332.509 121.216 333.973 121.851 335.686C123.506 338.09 125.245 334.719 125.962 333.255C127.783 333.614 129.052 331.1 127.949 329.719C131.398 323.64 134.433 317.369 137.165 310.959C138.324 308.251 139.427 305.488 140.476 302.726C144.118 294.188 148.423 285.927 151.624 277.224C149.94 285.568 148.478 293.912 146.491 302.201C145.746 305.461 145.222 308.721 144.836 312.036C144.284 316.65 143.98 321.292 143.566 325.906C143.677 328.337 141.111 340.742 143.787 340.991C145.801 341.184 145.774 338.781 145.719 337.372C166.22 334.609 186.418 328.144 204.133 317.286C204.078 317.313 203.995 317.369 203.94 317.396C205.513 315.96 208.879 316.54 208.52 313.832C208.52 313.749 208.52 313.639 208.52 313.556C208.189 302.947 207.941 292.337 208.382 281.728V281.7C208.438 279.297 208.52 276.865 208.631 274.462C209.265 259.238 210.562 244.015 212.301 228.902C216.329 223.376 221.875 219.315 226.98 214.839C234.21 208.512 241.466 202.158 248.006 195.113C248.503 194.56 249.027 194.007 249.524 193.482C268.121 172.623 277.972 145.492 286.388 119.272C288.623 118.941 292.348 119.77 292.679 116.648C293.562 112.034 295.576 107.53 295.301 102.778ZM205.596 282.529C205.596 282.778 205.596 282.999 205.596 283.247C205.596 282.999 205.596 282.75 205.596 282.529ZM135.288 239.152C135.261 239.097 135.233 239.014 135.206 238.959L135.288 239.152Z" fill="#F52E5E"/>
<path d="M162.909 143.254C161.309 141.541 163.599 138.253 165.723 139.331C168.317 140.712 165.034 145.188 162.909 143.254Z" fill="#F52E5E"/>
<path d="M179.382 156.405C176.595 154.554 176.071 148.614 180.652 149.829C186.115 151.791 184.57 160.632 179.382 156.405Z" fill="#F52E5E"/>
<path d="M161.447 164.5C153.748 163.533 156.839 152.427 160.84 148.918C161.53 147.978 163.461 150.106 164.289 150.437C166.055 151.432 167.766 152.509 169.614 153.311C169.614 153.311 169.587 153.311 169.587 153.283C169.614 153.283 169.642 153.311 169.67 153.311H169.642C169.67 153.338 169.725 153.338 169.752 153.366H169.725C170.856 154.333 174.747 154.72 173.56 156.764C170.553 160.494 166.496 164.307 161.447 164.5ZM162.026 162.456C164.096 162.235 166.055 161.24 167.766 160.107C167.738 160.135 167.683 160.162 167.655 160.19C168.869 159.306 169.973 158.284 171.022 157.206C170.994 157.234 170.966 157.262 170.939 157.289C170.966 157.262 170.994 157.234 171.049 157.179L171.022 157.206C171.077 157.151 171.104 157.123 171.16 157.068L171.132 157.096C171.353 156.875 171.573 156.654 171.794 156.433C170.58 155.991 169.476 155.328 168.318 154.83C168.345 154.858 168.4 154.858 168.428 154.885C165.972 153.615 163.627 152.095 161.668 150.161C161.061 151.487 160.095 152.648 159.543 154.001C159.543 153.974 159.571 153.946 159.571 153.918C159.543 153.974 159.543 154.001 159.515 154.057C159.515 154.057 159.515 154.029 159.543 154.029C158.081 156.875 157.501 162.539 162.026 162.456Z" fill="#080A1E"/>
<path d="M169.283 148.144C167.076 148.006 162.909 146.348 164.179 143.53C166.165 141.845 169.173 142.342 171.601 141.707C171.684 141.679 171.767 141.679 171.849 141.651C171.794 141.651 171.767 141.679 171.712 141.679C173.726 141.265 175.409 140.159 176.871 138.778C177.396 138.087 178.086 139.192 177.368 139.524C174.94 143.558 170.084 144.193 165.862 144.801C166.883 145.879 168.456 146.182 169.89 146.348C169.863 146.348 169.808 146.348 169.78 146.348C169.863 146.348 169.973 146.376 170.056 146.376C170.028 146.376 169.973 146.376 169.946 146.376C170.718 146.625 172.125 145.934 172.374 146.984C172.429 148.476 170.277 148.172 169.283 148.144Z" fill="#080A1E"/>
<path d="M191.992 152.841C191.082 147.674 189.15 144.387 183.328 145.989C182.197 146.542 181.369 145.105 182.142 144.248C183.135 143.42 184.68 143.585 185.894 143.364C185.867 143.364 185.812 143.364 185.784 143.364C189.206 143.005 192.351 145.409 192.931 148.779C192.931 148.752 192.931 148.752 192.903 148.724C192.931 148.807 192.931 148.89 192.958 148.973C192.958 148.945 192.958 148.945 192.931 148.918C193.234 149.857 194.062 154.139 191.992 152.841Z" fill="#080A1E"/>
<path d="M189.923 145.409C189.592 145.326 189.067 145.298 188.929 144.911C188.791 144.829 188.874 144.525 189.067 144.552C190.53 144.442 191.992 144.083 193.455 144.027C195.441 145.409 190.668 145.575 189.923 145.409Z" fill="#080A1E"/>
<path d="M191.385 147.702C191.192 147.702 191.027 147.591 190.971 147.426C190.751 146.956 191.247 146.293 191.744 146.597C192.793 146.514 193.841 145.657 194.89 145.961C195.303 146.238 195.221 146.873 194.779 147.094C193.676 147.426 192.517 147.591 191.385 147.702Z" fill="#080A1E"/>
<path d="M191.937 149.36C191.496 148.172 193.262 148.531 193.896 148.116C194.421 147.895 195.469 147.564 195.552 148.42C195.579 148.752 195.331 149.111 195 149.166C194.034 149.139 192.793 149.94 191.937 149.36Z" fill="#080A1E"/>
<path d="M298.612 270.483C298.391 271.312 298.115 272.141 297.812 272.942C296.184 277.224 293.397 281.12 289.755 283.938C289.755 283.938 289.755 283.938 289.727 283.938C280.925 290.983 269.143 286.729 258.906 287.558C249.248 287.889 240.694 293.912 230.871 292.945C219.31 292.503 213.267 283.855 208.631 274.379C208.493 274.13 208.383 273.854 208.245 273.577C207.61 273.55 207.251 272.887 207.307 272.307C207.334 270.4 207.169 268.466 207.224 266.532C207.224 266.587 207.224 266.67 207.224 266.726C207.638 257.857 207.638 248.933 208.824 240.147V240.119C209.624 235.782 209.955 230.864 212.356 227.079C214.067 224.758 216.081 222.575 218.151 220.531C218.151 220.531 218.151 220.531 218.151 220.503C226.76 211.524 235.81 202.987 245.33 194.974C245.661 194.339 246.765 194.56 247.951 195.002C249.248 195.472 250.683 196.162 251.4 196.19C261.196 198.621 269.612 206.081 271.709 216.165C271.709 216.193 271.736 216.248 271.736 216.276C272.812 220.918 273.806 225.614 275.489 230.09C279.628 242.689 295.88 242.937 298.584 258.106V258.133C299.771 262.277 299.688 266.505 298.612 270.483Z" fill="#080A1E"/>
<path d="M214.563 177.486C207.555 183.812 200.38 190.305 192.075 194.864C192.075 196.356 189.812 196.936 189.536 195.278C189.536 194.753 189.536 194.228 189.536 193.703C189.757 187.238 192.02 181.05 193.648 174.833C194.255 172.236 197.152 173.783 198.973 173.203C204.271 171.684 200.215 166.904 197.207 165.329C197.235 165.357 197.262 165.357 197.262 165.384C196.407 164.832 194.531 164.141 195.524 162.925C195.772 162.096 196.021 161.268 196.269 160.411C197.759 155.217 198.918 149.802 198.394 144.359C197.732 143.42 197.98 142.093 197.538 141.044C196.242 138.474 193.951 136.015 190.999 135.573C190.64 135.435 190.64 134.91 190.916 134.689C192.434 133.805 194.365 134.744 195.634 135.656C192.461 130.296 186.998 126.594 184.763 120.654C182.141 122.422 179.244 123.72 176.457 125.185C178.058 125.351 181.065 128.887 178.665 129.716C176.982 128.97 177.782 126.787 174.388 126.566C173.505 127.146 172.732 127.837 172.015 128.583C172.042 128.555 172.042 128.555 172.07 128.528C170.773 129.799 169.504 131.097 168.455 132.562C169.062 132.479 169.725 132.506 170.332 132.727C170.746 132.064 171.325 129.854 172.208 130.047C173.174 130.876 171.215 132.009 170.828 132.783C170.939 132.865 171.104 132.976 171.104 133.114C171.463 133.39 171.794 133.694 172.042 134.081C172.567 133.473 172.649 132.368 173.45 132.064C174.664 132.23 173.532 133.529 173.119 134.026C173.091 134.053 173.091 134.081 173.063 134.081C172.87 134.33 172.677 134.578 172.456 134.799C172.705 135.242 172.898 135.684 173.008 136.181C173.422 135.656 173.781 135.076 174.195 134.578C174.443 134.33 174.829 134.247 175.105 134.523C175.657 135.242 174.747 135.849 174.305 136.319C173.946 136.678 173.588 137.065 173.229 137.424C173.146 138.419 173.532 140.325 172.236 140.546C171.877 140.546 171.601 140.242 171.546 139.911C171.601 136.568 170.801 133.114 166.689 134.827C165.586 136.181 164.178 138.115 162.744 140.436C162.55 140.767 162.357 141.071 162.137 141.43C157.308 149.415 152.175 160.908 154.355 166.517C158.191 173.231 162.716 167.981 160.784 178.729C160.398 180 160.536 183.895 159.791 185.774C159.543 186.382 159.184 186.796 158.715 186.824C156.287 185.746 154.052 184.033 152.258 182.017C151.21 180.967 149.83 180.11 150.161 178.453C149.582 178.066 149.775 177.375 149.775 176.822C149.72 176.408 149.664 175.994 149.609 175.579C148.34 164.749 151.596 154.001 155.238 143.889C159.57 133.114 166.689 122.892 177.506 117.946C181.038 116.095 184.625 115.266 188.102 115.266C196.573 115.266 204.575 120.129 210.535 126.925C216.716 133.225 219.502 141.872 220.137 150.52C220.137 150.631 220.165 150.713 220.165 150.824C220.165 150.852 220.165 150.879 220.165 150.907C220.165 151.017 220.192 151.128 220.192 151.238C220.496 156.902 221.903 162.483 223.062 167.954C223.09 168.092 223.117 168.23 223.145 168.368C224.414 170.744 216.136 175.441 214.563 177.486Z" fill="#080A1E"/>
<path d="M299.826 14.0905C299.605 15.0299 299.44 15.9969 299.384 16.9363C299.329 17.3783 299.026 17.7927 298.639 17.9309C298.474 17.9861 298.308 17.9861 298.115 17.9585C295.577 16.9363 298.971 10.858 298.888 8.64771C296.404 10.9961 295.577 14.4773 293.783 17.2125C289.423 18.0138 294.859 8.09514 294.776 6.18877C293.618 7.12814 292.735 8.28854 291.962 9.55945C291.934 9.58708 291.934 9.58708 291.934 9.61471C290.803 10.6646 287.795 19.8925 286.581 15.2233C286.968 11.604 289.534 8.5372 290.058 4.97312C289.699 5.30466 289.341 5.66383 289.009 6.023C288.954 6.10589 288.872 6.16115 288.816 6.24403C281.973 14.3944 279.6 25.1419 277.007 35.2263C274.358 44.7305 272.592 54.4281 270.633 64.0705C270.633 64.0705 270.633 64.0705 270.633 64.0981C270.633 64.1257 270.633 64.1534 270.605 64.181C270.577 64.3468 270.55 64.5125 270.522 64.6783V64.7059C270.495 64.8164 270.495 64.8993 270.467 65.0098C270.467 64.9546 270.495 64.8993 270.495 64.8441C270.439 65.1204 270.384 65.369 270.357 65.6453C269.501 68.1871 266.77 85.5102 264.424 90.4004C263.955 91.3674 263.514 91.8648 263.1 91.6437C262.493 91.4227 262.575 90.6491 262.824 89.7374C263.127 88.6875 263.679 87.4442 263.652 86.7811C265.279 79.5977 266.659 72.359 268.177 65.148C268.177 65.1204 268.177 65.0927 268.177 65.0927C268.811 61.4458 269.612 57.8541 270.274 54.2071C272.757 41.1665 275.654 28.0982 280.207 15.6101C281.946 11.4382 284.126 7.34917 287.216 4.00612C290.224 0.248646 293.176 1.4643 291.934 6.29929C294.776 2.15501 297.674 4.42055 296.184 8.7306C297.205 7.04526 299.992 4.17189 300.847 7.59783C300.985 9.80811 300.323 11.9355 299.826 14.0905Z" fill="#080A1E"/>
<path d="M289.12 99.3245C289.12 99.3522 289.12 99.38 289.12 99.38C289.12 99.4077 289.12 99.4355 289.12 99.4632C289.092 99.4077 289.12 99.3522 289.12 99.3245Z" fill="#080A1E"/>
<path d="M302.861 21.4121C302.861 21.4121 302.861 21.4397 302.861 21.4121C297.977 38.5141 295.963 56.3345 293.921 73.9339C293.618 80.2608 292.707 86.5325 292.459 92.8594C292.045 93.7988 292.155 97.3905 291.659 99.5179C291.327 100.927 290.693 101.673 289.479 100.54C289.203 100.181 289.12 99.7942 289.148 99.3521C289.148 99.1311 289.175 98.8824 289.203 98.6614C290.279 82.3329 291.631 66.0045 294.142 49.8142C296.101 37.8234 298.033 25.7221 302.944 14.5326C301.868 15.1128 299.716 19.036 298.695 17.9309C298.529 17.7375 298.391 17.4059 298.281 16.9086C298.529 16.1903 299.136 15.1128 299.909 14.0905C301.537 11.9355 303.938 9.91862 305.731 11.3829C306.862 12.8749 303.303 19.2294 302.861 21.4121Z" fill="#080A1E"/>
<path d="M88.2149 6.18882C87.9942 7.26633 87.6078 8.37147 87.1388 9.39372C86.8076 10.3607 86.8904 12.1013 85.9247 12.5157C85.7039 12.5986 85.4556 12.6263 85.1521 12.571C82.4479 11.1343 86.7525 5.96779 86.5317 3.53648C84.2967 5.35996 82.8894 8.0123 81.6201 10.5541C81.4822 10.9133 81.1235 11.2172 80.7648 11.3001C77.2329 11.1896 81.3718 5.05605 80.7372 2.92865C78.447 6.87953 77.6192 11.5764 76.7362 16.0246C75.4669 21.716 73.8941 27.3246 72.9283 33.0714C69.9207 45.9462 69.5344 59.2079 69.5896 72.3867C70.1414 84.7366 70.914 97.1695 74.0596 109.133C74.0872 109.243 74.1148 109.381 74.1424 109.492C74.2252 110.182 73.3422 110.652 72.8456 110.155C72.7904 110.072 72.7628 109.989 72.7076 109.879C69.6999 104.021 69.0377 97.0313 68.1547 90.5663C67.0234 79.9017 66.5267 69.2371 66.8854 58.5172C66.8854 58.2409 66.913 57.9923 66.913 57.716C67.2718 43.5978 70.2518 29.7283 73.8389 16.1075C74.915 11.2448 75.8532 6.21645 78.3366 1.85114C80.4061 -1.60242 83.4413 0.221061 82.9446 3.81277C87.9114 -2.0721 89.1531 1.82351 88.2149 6.18882Z" fill="#080A1E"/>
<path d="M92.5469 26.2472C90.4774 34.8396 89.3461 43.6531 89.0978 52.5219C89.153 65.673 91.8295 78.6308 94.506 91.4504C95.1131 93.9646 95.6097 96.5064 96.3272 99.0206C96.3272 99.0206 96.3272 99.0206 96.3272 99.0483C96.3272 99.0759 96.3272 99.0759 96.3272 99.1035C96.7411 100.457 94.8647 101.645 94.1473 100.153C94.1197 100.098 94.1197 100.043 94.0921 100.015C85.6487 70.8396 80.406 37.1052 96.5755 9.69768C94.4508 10.416 91.8847 14.9471 90.2843 14.4498C87.8837 12.4882 92.4365 8.261 92.0778 5.52577C89.5669 7.21111 88.4631 10.3055 86.4764 12.5158C86.2557 12.5987 86.0901 12.6263 85.9246 12.571C85.2624 12.4053 85.4003 11.0791 85.7866 10.5265C86.642 9.20036 87.3594 7.65317 88.1872 6.24412C88.9874 4.89032 89.9532 3.67466 91.3328 2.87344C94.9199 1.1881 94.8095 6.43751 93.899 8.56491C97.9551 5.02846 99.997 7.70843 98.2587 12.129C95.996 16.6601 93.9542 21.3016 92.5469 26.2472Z" fill="#080A1E"/>
<path d="M230.319 313.915C230.071 314.882 229.657 315.932 229.133 317.009C227.118 321.126 223.586 325.685 222.703 327.812C218.785 333.476 215.86 339.692 212.439 345.633C212.301 345.826 212.19 346.047 212.08 346.24C211.556 347.152 211.225 347.981 210.866 348.727C209.928 350.689 209.072 351.821 205.347 351.407C179.162 350.246 152.562 352.678 126.652 347.953C121.63 346.6 115.973 346.517 111.421 343.809C111.31 343.754 111.227 343.699 111.145 343.643C110.096 342.704 109.13 341.682 108.275 340.577C103.529 334.581 101.432 326.597 99.5279 319.303C99.1416 317.755 98.7277 315.49 98.6726 313.169C98.645 312.23 98.6725 311.318 98.7829 310.434C99.114 307.643 100.245 305.267 102.894 304.825C106.537 306.345 110.565 307.809 113.656 310.379C113.904 310.572 114.125 310.793 114.373 310.986C114.594 311.18 114.787 311.401 115.008 311.594C115.339 311.594 115.615 311.65 115.891 311.788C117.463 312.589 117.712 315.877 118.65 317.286C120.692 321.955 123.148 326.541 126.404 330.465C129.742 324.359 132.833 318.142 136.061 311.981C136.309 311.484 136.696 311.125 137.137 310.904C137.689 310.627 138.324 310.572 138.986 310.71C140.504 310.959 142.408 310.489 143.677 311.401C144.284 311.318 144.643 311.567 144.836 311.953C145.084 312.478 145.056 313.252 144.919 313.832C144.725 316.07 144.781 318.336 144.284 320.546C143.76 324.884 144.146 329.276 144.174 333.642C153.279 333.89 162.33 332.509 171.16 330.243C171.905 330.05 172.65 329.857 173.395 329.663H173.367C173.422 329.663 173.45 329.636 173.505 329.636H173.533C184.183 326.707 194.089 321.513 203.968 316.706C206.23 315.407 206.92 314.108 208.521 313.473C209.266 313.169 210.231 313.031 211.666 313.114C216.992 312.755 221.6 309.55 226.815 308.942C230.291 309.329 230.981 311.318 230.319 313.915Z" fill="#080A1E"/>
<path d="M115.863 311.843C115.835 312.755 114.897 313.639 113.959 313.39C113.683 313.28 113.38 313.141 113.104 313.003C109.627 311.456 106.233 309.605 103.446 306.953C102.977 307.229 102.563 306.621 102.95 306.234C103.86 304.77 107.999 308.914 109.958 309.052C111.172 309.494 112.359 310.102 113.628 310.406C113.932 310.489 114.235 310.544 114.539 310.572C114.594 310.572 114.621 310.572 114.677 310.572C115.09 310.6 115.504 310.821 115.698 311.18C115.835 311.401 115.891 311.622 115.863 311.843Z" fill="#080A1E"/>
<path d="M176.512 368.923C174.415 372.791 171.27 389.949 165.696 387.738C163.295 385.749 164.399 381.494 164.261 378.676C142.049 376.273 119.809 373.758 97.6791 370.609C78.1432 367.625 58.221 364.945 39.8165 357.319C17.7696 348.534 12.6097 330.243 36.2294 318.833C52.9784 311.318 72.0452 309.246 90.2566 310.019C90.2014 310.019 90.1186 310.019 90.0634 310.019C90.4221 310.019 90.7533 310.047 91.112 310.047C91.857 310.102 95.582 310.102 98.7828 310.434C102.398 310.821 105.322 311.649 102.342 313.501C101.128 313.362 99.8866 313.252 98.6725 313.169C94.5335 312.893 90.367 312.948 86.228 312.838C85.7589 312.838 85.2898 312.81 84.8207 312.81C84.7656 312.81 84.738 312.81 84.6828 312.81C84.6 312.81 84.4896 312.81 84.4068 312.81C69.5066 312.727 54.358 314.91 40.3131 319.966C22.2121 327.425 16.0588 340.245 35.4568 351.545C55.3238 361.298 77.6741 363.923 99.2795 367.349C113.821 369.586 128.445 371.078 143.042 372.874C143.815 372.957 144.587 373.068 145.332 373.151C147.816 373.454 150.299 373.758 152.755 374.09C170.883 377.019 165.282 372.377 167.02 385.777C169.255 384.091 169.504 380.721 170.221 378.179C171.353 374.615 172.539 371.078 173.698 367.542C173.67 367.625 173.643 367.68 173.643 367.763C175.712 361.768 176.016 361.243 169.531 359.64C163.268 358.286 156.921 357.237 150.575 356.435C150.547 356.435 150.547 356.435 150.52 356.435C149.913 356.352 149.278 356.297 148.671 356.214C136.033 354.612 123.479 352.402 111.007 349.832C101.349 347.511 91.6086 345.522 81.8959 343.367C74.6665 341.405 66.5817 340.383 60.2905 336.266C59.5731 334.111 62.2496 333.752 63.7672 334.277C66.2506 334.609 68.7616 334.498 71.245 334.802C82.6685 335.686 93.8713 337.952 105.102 340.052H105.129C105.295 340.079 105.433 340.107 105.598 340.134C105.654 340.134 105.709 340.162 105.764 340.162C105.847 340.162 105.929 340.19 106.04 340.217C106.178 340.245 106.316 340.273 106.454 340.3C107.061 340.411 107.668 340.494 108.302 340.604C114.814 341.682 121.354 342.621 127.921 343.008C131.867 347.649 117.905 344.997 111.476 343.837C110.013 343.588 108.937 343.395 108.551 343.395C108.468 343.367 108.385 343.367 108.302 343.339C95.4165 340.908 82.6409 337.952 69.5342 336.902C94.975 343.339 120.747 349.003 146.74 352.733C154.769 353.672 162.799 354.833 170.69 356.573C179.244 358.397 179.437 361.27 176.512 368.923Z" fill="#080A1E"/>
<path d="M308.435 346.655C308.435 346.848 308.407 347.069 308.38 347.263C306.283 374.256 278.165 388.54 255.015 395.392C236.417 401.166 217.157 404.233 198.007 407.493C183.769 409.897 169.531 412.245 155.183 413.765C150.851 414.372 146.546 415.035 142.214 415.671C140.945 415.699 139.565 416.279 138.296 416.279C137.855 416.279 137.441 416.224 137.027 416.085C136.006 415.063 136.668 413.958 137.689 413.433C138.103 413.212 138.572 413.101 139.014 413.101C142.021 412.494 145.056 412.024 148.092 411.527C151.237 410.974 154.41 410.532 157.584 410.118C158.356 410.007 159.129 409.924 159.901 409.814C164.785 409.206 169.697 408.653 174.553 407.88C204.326 402.796 234.623 399.204 263.293 389.258C273.171 385.528 282.939 380.914 290.941 373.897L290.748 374.062C303.606 363.785 312.27 341.765 297.646 329.332C289.948 321.624 278.745 320.242 268.48 318.474C255.456 316.236 242.267 316.236 229.105 316.982C227.367 317.092 225.628 317.175 223.917 317.313C223.448 317.894 222.814 317.452 222.207 317.535C219.171 315.545 223.779 314.468 230.319 313.888C239.535 313.086 252.669 313.307 253.911 313.39C266.631 314.495 279.738 315.849 291.658 320.657C300.598 325.381 308.104 334.056 308.462 344.417C308.49 345.163 308.49 345.909 308.435 346.655Z" fill="#080A1E"/>
<path d="M258.712 358.176C258.657 358.203 258.63 358.231 258.574 358.259C258.464 358.342 258.326 358.424 258.216 358.507C258.188 358.535 258.161 358.535 258.133 358.563C239.342 370.885 217.323 376.687 196.462 384.533C184.294 388.429 172.015 392.048 159.681 395.474C159.046 395.668 158.384 395.833 157.749 396.027C149.83 398.21 141.883 400.309 133.937 402.381C132.391 406.111 132.336 410.173 131.84 414.124C131.398 418.13 130.846 422.274 131.398 426.308C131.536 426.087 131.646 425.866 131.757 425.617C131.757 425.589 131.784 425.589 131.784 425.562C133.247 422.495 134.35 419.29 135.592 416.168C135.923 415.091 136.31 413.322 137.662 413.433C137.744 413.433 137.855 413.46 137.938 413.488C138.848 413.82 138.738 414.952 138.269 416.306C137.524 418.323 135.978 420.837 135.785 421.915C134.737 423.849 133.136 430.645 130.184 429.347C126.707 425.368 129.825 406.305 131.757 401.249C133.302 397.961 141.801 397.74 145.167 396.331C153.445 394.176 161.585 391.523 169.835 389.258C188.267 384.395 206.12 377.709 224.028 371.244C234.017 367.266 244.116 363.453 253.387 357.927C256.946 355.634 261.085 353.7 263.431 350.053C254.27 346.986 244.198 347.511 234.651 347.649C226.732 347.788 218.785 348.948 210.866 348.727C209.983 348.699 209.1 348.672 208.217 348.589C206.23 348.34 207.058 346.075 208.824 346.461C208.769 346.461 208.714 346.461 208.686 346.461C209.818 346.378 210.949 346.323 212.08 346.24C212.246 346.24 212.411 346.213 212.549 346.213C212.742 346.185 212.936 346.185 213.129 346.185C213.156 346.185 213.184 346.185 213.211 346.185H213.184C222.014 345.439 289.148 337.897 258.712 358.176Z" fill="#080A1E"/>
<path d="M158.301 411.913C156.645 412.3 158.108 398.818 157.749 396.745C157.804 395.668 157.28 392.794 159.156 393.458C159.818 394.314 159.57 395.585 159.791 396.607C159.791 399.287 161.557 411.61 158.301 411.913Z" fill="#080A1E"/>
<path d="M155.597 399.121C154.769 399.121 154.659 397.989 155.266 397.574C155.928 397.077 160.039 396.303 158.853 398.099C157.887 398.679 156.673 398.9 155.597 399.121Z" fill="#080A1E"/>
<path d="M155.073 403.984C154.549 401.801 162.523 402.105 156.37 404.26C156.397 404.26 156.397 404.233 156.425 404.233C155.983 404.509 155.266 404.619 155.073 403.984Z" fill="#080A1E"/>
<path d="M155.845 408.736C154.631 407.824 156.342 407.244 157.197 407.272C157.583 407.244 158.604 406.83 158.604 407.493C158.301 407.88 157.583 407.88 157.17 408.239C157.197 408.239 157.225 408.211 157.225 408.211C156.756 408.377 156.342 408.847 155.845 408.736Z" fill="#080A1E"/>
<path d="M142.959 373.233C143.511 368.979 145.526 364.972 146.85 360.911C147.402 359.889 148.92 353.286 150.548 355.468C150.961 355.8 150.713 356.49 150.244 356.656C148.864 361.547 147.595 366.464 145.967 371.299C145.526 372.294 145.443 373.896 144.146 374.117C143.567 374.228 143.042 373.841 142.959 373.233Z" fill="#080A1E"/>
<path d="M150.051 360.193C149.333 359.806 147.733 359.419 148.202 358.314C148.423 357.844 149.223 357.734 149.416 358.259C149.885 358.425 150.382 358.507 150.851 358.729C151.734 359.226 150.878 360.607 150.051 360.193Z" fill="#080A1E"/>
<path d="M149.168 365.47C148.92 365.387 148.699 365.332 148.451 365.276H148.478C148.451 365.276 148.451 365.276 148.423 365.276C147.954 365.138 147.43 365.111 146.961 364.89C146.436 364.669 146.629 363.867 147.126 363.757C147.43 363.702 147.733 363.84 148.037 363.784C148.037 363.784 148.037 363.784 148.009 363.784C150.548 363.232 151.017 365.442 149.168 365.47Z" fill="#080A1E"/>
<path d="M147.54 369.89C146.74 369.725 144.67 369.034 146.05 368.122C146.022 368.122 146.022 368.15 145.995 368.15C146.657 368.012 147.402 368.233 148.119 368.205C149.251 368.426 148.533 370.222 147.54 369.89Z" fill="#080A1E"/>
<path d="M162.136 141.486C161.226 140.381 164.371 140.215 165.006 139.966C165.779 139.883 165.751 141.099 165.061 141.209C164.095 141.32 163.074 141.734 162.136 141.486Z" fill="#080A1E"/>
<path d="M164.151 142.867C163.378 142.756 163.875 141.375 164.51 141.928C164.73 141.9 164.951 141.872 165.172 141.817C165.172 141.817 165.172 141.817 165.144 141.817C165.172 141.817 165.2 141.817 165.2 141.789H165.172C167.379 141.071 166.91 143.392 164.151 142.867Z" fill="#080A1E"/>
<path d="M177.892 151.763C177.037 150.465 180.32 150.216 181.12 150.078C181.755 150.106 181.727 151.1 181.176 151.239C180.099 151.377 178.941 151.957 177.892 151.763Z" fill="#080A1E"/>
<path d="M181.066 153.338C180.569 153.421 180.183 152.841 180.679 152.565C180.983 152.454 181.314 152.427 181.645 152.344C181.645 152.344 181.645 152.344 181.617 152.344C181.645 152.344 181.7 152.316 181.728 152.316C181.7 152.316 181.673 152.316 181.673 152.344C182.39 152.288 183.908 151.377 184.128 152.454C184.156 152.758 183.935 153.062 183.632 153.117C182.776 153.228 181.921 153.311 181.066 153.338Z" fill="#080A1E"/>
<path d="M183.217 155.438C182.61 155.548 182.031 154.858 182.721 154.499C183.549 154.554 185.48 153.449 185.701 154.637C185.646 155.88 184.018 155.355 183.217 155.438Z" fill="#080A1E"/>
<path d="M285.395 117.697C278.469 114.465 271.212 112.144 264.258 108.994C263.32 108.221 259.816 107.585 260.395 106.066C261.113 105.541 262.906 106.922 263.844 107.06C267.459 108.635 271.267 109.768 274.937 111.232C278.772 112.641 282.635 113.968 286.278 115.791C287.271 116.344 286.498 118.195 285.395 117.697Z" fill="white"/>
<path d="M143.649 194.118C140.531 192.985 145.001 189.172 145.939 187.708C146.602 186.934 152.369 179.779 151.679 183.812C149.526 186.327 147.485 188.951 145.581 191.631C146.215 191.521 146.822 191.355 147.429 191.189C147.374 191.217 147.347 191.217 147.291 191.245C148.478 190.913 149.664 190.581 150.851 190.222C150.823 190.222 150.823 190.222 150.796 190.25C152.258 190.057 157.528 187.156 156.535 190.526C154.493 191.825 151.734 192.156 149.388 192.985C149.444 192.958 149.471 192.958 149.526 192.93C147.623 193.482 145.663 194.228 143.649 194.118Z" fill="white"/>
<path d="M191.109 210.115C188.846 207.739 187.743 204.423 186.225 201.55C186.225 201.55 186.225 201.55 186.225 201.578C185.811 200.97 185.756 199.726 186.749 199.754C189.122 201.467 189.922 204.948 191.799 207.269C192.765 204.644 194.034 202.13 195.027 199.505V199.533C195.386 198.511 195.745 197.489 195.993 196.439C195.993 196.466 195.993 196.466 195.993 196.494C195.993 196.439 196.021 196.383 196.021 196.328C196.021 196.356 195.993 196.383 195.993 196.411C196.296 193.427 199.332 194.56 197.787 197.102C196.766 200.196 195.358 203.152 194.117 206.191C193.454 207.49 193.178 210.723 191.109 210.115Z" fill="white"/>
<path d="M143.567 285.32C141.497 284.629 146.491 277.888 147.209 276.534C149.278 276.064 146.74 279.904 146.464 280.678C145.498 281.756 145.112 285.513 143.567 285.32Z" fill="white"/>
<path d="M138.545 289.022C137.192 287.751 139.676 285.596 140.145 284.27C140.835 283.165 141.359 281.949 142.076 280.871C143.484 279.987 142.242 282.695 142.049 283.192V283.165C141.387 284.242 139.952 289.74 138.545 289.022Z" fill="white"/>
<path d="M132.805 293.663C131.37 292.42 133.826 290.707 134.35 289.491C134.35 289.491 134.35 289.491 134.35 289.519C134.902 289.077 137.109 284.021 137.22 286.729C136.723 288.69 135.426 290.458 134.46 292.254C134.129 292.89 133.715 294.05 132.805 293.663Z" fill="white"/>
<path d="M203.802 288.165C202.919 287.999 203.195 287.005 203.388 286.397C203.885 285.292 203.995 279.739 205.099 279.904C205.237 281.673 204.933 283.524 204.823 285.292C204.575 286.231 205.209 288.11 203.802 288.165Z" fill="white"/>
<path d="M199.635 295.211C197.814 294.934 200.629 289.519 200.601 288.055C200.601 288.082 200.573 288.11 200.573 288.138C200.601 288.055 200.629 287.972 200.629 287.861C200.629 287.889 200.601 287.917 200.601 287.944C200.904 287.226 200.711 285.927 201.512 285.568C202.201 285.623 201.787 286.48 201.787 286.922C201.374 288.441 201.401 295.349 199.635 295.211Z" fill="white"/>
<path d="M195 301.593C193.565 300.736 195.552 297.973 195.524 296.564C195.524 296.592 195.497 296.647 195.497 296.675C195.8 296.067 196.159 291.867 197.207 293.083C197.097 294.52 196.904 301.98 195 301.593Z" fill="white"/>
<path d="M185.977 315.849C184.542 315.131 185.949 313.39 186.391 312.395C187.577 309.936 188.653 307.422 189.757 304.908C190.171 304.3 190.64 299.797 191.716 301.62C191.413 303.527 191.054 305.461 190.309 307.257C190.337 307.229 190.337 307.174 190.364 307.146C190.337 307.229 190.309 307.312 190.254 307.422C190.226 307.45 190.226 307.505 190.199 307.533C190.199 307.533 190.199 307.533 190.199 307.505C190.199 307.533 190.199 307.533 190.171 307.56C190.171 307.588 190.143 307.643 190.143 307.671C190.143 307.671 190.143 307.671 190.143 307.643C190.116 307.726 190.061 307.837 190.033 307.92C190.061 307.892 190.061 307.837 190.088 307.809C189.95 308.196 189.812 308.583 189.674 308.942C189.647 308.997 189.647 309.025 189.619 309.08C189.619 309.052 189.619 309.052 189.647 309.025C188.929 310.323 187.55 316.291 185.977 315.849Z" fill="white"/>
<path d="M151.817 268.024C152.175 264.515 152.975 261.062 153.307 257.581C153.307 257.636 153.307 257.691 153.279 257.719C153.831 250.314 155.348 243.048 156.287 235.671C156.618 234.649 156.783 224.399 158.411 226.167C157.915 231.333 157.694 236.638 156.976 241.832V241.805C156.976 241.915 156.949 242.026 156.949 242.136V242.109C155.955 249.209 155.348 256.365 154.134 263.438C153.61 264.736 153.969 268.549 152.534 268.853C152.12 268.908 151.789 268.466 151.817 268.024Z" fill="white"/>
<path d="M161.391 225.089C159.846 224.454 160.895 221.663 162.164 221.277C164.702 221.166 163.488 225.587 161.391 225.089Z" fill="white"/>
<path d="M176.65 208.927C175.491 207.573 177.257 205.446 178.802 205.694C180.955 206.661 178.444 210.446 176.65 208.927Z" fill="white"/>
<path d="M158.991 249.706C157.308 249.016 158.604 245.783 160.15 245.811C162.081 246.253 160.729 250.121 158.991 249.706Z" fill="white"/>
<path d="M154.079 275.871C153.169 275.18 154.465 272.224 155.514 273.218C155.707 273.274 155.79 273.495 155.762 273.688C156.921 274.71 155.348 276.948 154.079 275.871Z" fill="white"/>
<path d="M150.686 305.212C150.051 304.328 150.548 302.753 151.182 302.007C151.679 301.62 152.231 302.256 152.093 302.781C153.362 303.499 152.01 306.317 150.686 305.212Z" fill="white"/>
<path d="M135.482 240.506C135.206 239.263 131.729 232.3 133.55 232.218C133.55 232.218 133.55 232.218 133.523 232.218C133.826 232.245 133.909 232.604 133.799 232.853C134.019 233.488 134.295 234.069 134.544 234.676C134.544 234.649 134.516 234.621 134.516 234.594C135.289 236.224 136.061 237.826 136.999 239.373C137.606 240.34 136.144 241.611 135.482 240.506Z" fill="white"/>
<path d="M140.421 240.175C140.062 239.677 139.814 239.125 139.565 238.572C139.565 238.6 139.593 238.627 139.593 238.655C139.565 238.6 139.538 238.545 139.51 238.462C139.51 238.489 139.538 238.517 139.538 238.545C139.483 238.047 135.62 230.864 137.358 232.439V232.411C137.358 232.383 137.358 232.356 137.33 232.328C137.993 233.599 138.82 234.815 139.593 236.03C139.565 236.003 139.565 235.975 139.565 235.975C139.676 236.141 139.759 236.307 139.869 236.472C139.869 236.472 139.841 236.445 139.841 236.417C140.228 237.66 142.38 238.931 141.469 240.23C141.166 240.534 140.669 240.534 140.421 240.175Z" fill="white"/>
<path d="M174.112 243.407C173.919 243.241 173.726 243.048 173.56 242.855C173.588 242.882 173.615 242.91 173.643 242.937C172.374 241.418 171.104 239.65 170.58 237.743V237.771C170.525 237.329 171.242 237.163 171.27 237.688C171.739 238.545 172.456 239.29 173.008 240.092C173.588 241.197 175.988 241.639 175.271 243.131C175.05 243.462 174.498 243.683 174.112 243.407Z" fill="white"/>
<path d="M180.044 243.849C178.637 243.683 172.622 238.489 174.222 237.384C174.443 237.329 174.608 237.522 174.608 237.716C175.629 239.318 177.175 240.589 178.968 241.28C179.851 241.694 181.645 241.667 181.231 243.103C181.12 243.573 180.569 244.015 180.044 243.849Z" fill="white"/>
<path d="M185.673 243.103C184.68 242.44 178.775 239.65 180.541 238.324C180.734 238.241 180.982 238.324 181.093 238.489C182.279 239.677 183.797 240.368 185.37 240.948C187.412 241.28 187.329 243.38 185.673 243.103Z" fill="white"/>
<path d="M78.8331 127.395C77.8674 125.958 80.0472 125.71 80.9302 125.24C86.8903 122.201 93.0988 119.272 98.3966 115.183C100.356 114.023 100.88 116.758 98.507 117.918C95.5269 120.074 81.758 128.666 78.8331 127.395Z" fill="white"/>
<path d="M128.528 208.347C128.418 205.307 129.025 202.241 128.887 199.201C129.328 197.019 131.481 198.207 130.791 200.086V200.058C130.515 202.876 130.377 205.805 129.577 208.512C129.301 208.871 128.666 208.844 128.528 208.347Z" fill="white"/>
<path d="M126.9 203.595C126.845 201.578 126.873 199.533 126.845 197.489C126.845 197.516 126.845 197.516 126.845 197.544C126.845 196.853 126.79 196.19 126.624 195.527C126.459 194.671 127.756 194.035 128.114 194.974C128.666 197.765 128.087 200.721 127.645 203.484C127.645 203.484 127.645 203.484 127.645 203.456C127.59 203.843 127.038 203.981 126.9 203.595Z" fill="white"/>
<path d="M124.279 200.03C123.976 198.207 123.865 196.328 123.341 194.56C123.148 193.621 122.044 192.322 123.148 191.604C124.941 190.029 126.376 202.71 124.279 200.03Z" fill="white"/>
<path d="M213.708 166.71C212.797 156.129 209.431 145.188 201.65 137.645C198.808 135.076 187.688 126.179 189.591 122.229C190.53 122.09 190.143 123.527 190.557 124.024C190.557 123.997 190.53 123.969 190.53 123.969C191.164 125.185 192.075 126.235 192.958 127.285C192.93 127.257 192.93 127.229 192.903 127.229C196.214 131.263 200.932 133.75 204.547 137.452C208.355 141.679 211.556 146.707 213.018 152.261C213.459 153.421 217.102 170.661 213.708 166.71Z" fill="white"/>
<path d="M205.126 171.352C205.126 164.003 206.092 156.073 202.836 149.222C202.836 149.249 202.864 149.277 202.864 149.305C202.643 148.31 201.07 147.094 201.926 146.127C202.201 145.906 202.615 146.017 202.753 146.376C204.078 149.332 205.954 152.123 206.34 155.41C206.34 155.383 206.34 155.355 206.313 155.328C206.313 155.383 206.34 155.466 206.34 155.521C206.34 155.493 206.34 155.438 206.313 155.41C206.589 156.543 208.327 176.712 205.126 171.352Z" fill="white"/>
<path d="M284.153 268.549C277.586 264.543 269.86 261.366 266.852 253.657C260.175 241.666 264.976 223.625 251.428 215.834C247.537 212.629 239.59 213.347 238.045 207.904C238.073 207.656 238.238 207.38 238.514 207.38C239.038 207.38 238.873 207.987 239.066 208.319C239.066 208.291 239.038 208.264 239.038 208.264C239.314 208.816 239.783 209.203 240.28 209.535C240.252 209.535 240.225 209.507 240.225 209.507C242.377 210.861 244.916 211.275 247.344 211.911C251.648 213.292 255.953 215.64 258.547 219.453C262.713 224.896 263.844 231.637 264.479 238.296C265.941 247.662 268.921 258.161 278.027 262.719C279.076 263.465 289.037 267.831 284.153 268.549Z" fill="white"/>
<path d="M272.702 276.672C272.012 275.097 270.963 273.716 269.639 272.61C269.667 272.638 269.722 272.666 269.749 272.693C268.756 271.837 267.707 271.091 266.576 270.4C266.576 270.4 266.604 270.4 266.604 270.428C266.466 270.345 266.3 270.262 266.162 270.152C266.162 270.152 266.19 270.152 266.19 270.179C256.256 264.626 251.262 253.243 251.621 242.136C251.621 242.164 251.621 242.191 251.621 242.219C251.483 238.213 251.676 234.179 251.152 230.228C251.124 229.703 250.683 228.874 251.317 228.571C251.593 228.46 251.814 228.681 251.869 228.957C252.918 235.091 252.752 241.335 253.469 247.496C253.469 247.468 253.469 247.468 253.469 247.441C253.525 247.745 253.552 248.021 253.607 248.325C254.987 256.393 259.678 263.88 266.852 267.997C266.852 267.997 266.824 267.997 266.824 267.969C266.935 268.024 267.018 268.079 267.128 268.135C267.1 268.135 267.1 268.107 267.073 268.107C267.1 268.135 267.156 268.162 267.183 268.19C267.183 268.19 267.183 268.19 267.156 268.19C269.556 269.627 271.929 271.284 273.502 273.633C273.502 273.605 273.474 273.605 273.474 273.577C273.502 273.605 273.53 273.66 273.557 273.688C273.557 273.688 273.557 273.66 273.53 273.66C274.054 274.6 275.213 276.009 274.054 276.921C273.612 277.28 272.95 277.169 272.702 276.672Z" fill="white"/>
<path d="M220.689 277.307C214.674 265.676 224 254.016 227.118 243.02C229.077 235.643 227.753 229.703 225.435 222.713C225.352 222.161 226.208 221.884 226.291 222.548C226.649 224.647 227.919 226.443 228.636 228.432C229.684 231.775 229.96 235.395 229.657 238.876C229.657 238.848 229.657 238.821 229.657 238.793C229.657 238.904 229.629 238.986 229.629 239.097C229.629 239.18 229.602 239.235 229.602 239.318C228.664 251.778 216.44 263.161 222.124 275.981C222.124 275.953 222.096 275.953 222.096 275.926C222.869 276.81 221.545 278.357 220.689 277.307Z" fill="white"/>
<path d="M244.005 281.479C232.995 276.644 232.168 263.3 233.878 252.911C234.347 251.806 233.685 249.071 235.12 248.878C235.699 248.96 235.727 249.596 235.617 250.038C235.617 250.01 235.617 250.01 235.617 249.983C235.589 250.148 235.589 250.314 235.562 250.508C235.562 250.48 235.562 250.425 235.562 250.397C234.485 258.99 233.685 269.102 240.252 275.76C241.935 277.501 244.143 278.772 246.461 279.462C248.42 280.733 246.488 282.944 244.005 281.479Z" fill="white"/>
<path d="M255.677 279.379C250.462 278.219 245.909 273.854 244.419 268.715C244.309 267.803 243.536 266.145 244.474 265.565C245.44 265.648 244.805 267.195 245.219 267.858C246.764 272.528 251.179 276.368 256.036 277.142C257.36 277.363 256.946 279.545 255.677 279.379Z" fill="white"/>
<path d="M118.126 436.834C117.905 436.392 118.402 435.978 118.678 435.674C118.65 435.702 118.65 435.701 118.622 435.729C119.809 433.823 121.161 435.702 119.257 436.53C119.257 436.53 119.285 436.53 119.285 436.503C119.147 436.586 119.036 436.669 118.898 436.751C118.926 436.751 118.926 436.724 118.954 436.724C118.705 436.89 118.347 437.221 118.126 436.834Z" fill="white"/>
<path d="M196.987 326.652C196.186 325.713 197.649 325.049 198.201 324.442C199.304 323.447 200.298 322.204 201.622 321.513C203.14 321.9 200.519 323.668 200.187 324.331C199.277 325.049 198.366 327.343 196.987 326.652Z" fill="white"/>
<path d="M191.137 332.702C191.192 330.989 193.813 331.128 194.945 330.271C197.676 329.138 199.994 327.342 202.229 325.464L202.202 325.491C204.713 324.386 200.794 328.448 200.298 328.834C199.056 329.94 192.075 334.913 191.137 332.702Z" fill="white"/>
<path d="M194.945 336.515C194.696 335.41 196.214 335.438 196.849 334.968C196.849 334.968 196.821 334.968 196.821 334.996C197.842 334.692 199.028 333.006 199.994 333.283C200.518 333.669 195.083 338.09 194.945 336.515Z" fill="white"/>
<path d="M113.573 318.971C113.131 317.313 112.717 315.6 112.497 313.915C113.931 311.511 114.483 317.424 115.173 318.225C115.532 319.164 113.987 320.021 113.573 318.971Z" fill="white"/>
<path d="M116.36 326.596C115.559 326.486 115.725 325.574 116.001 325.049C116.801 322.95 116.718 320.601 116.691 318.391C117.932 316.816 118.374 327.37 116.36 326.596Z" fill="white"/>
</g>
<defs>
<clipPath id="clip0">
<rect width="361" height="437" fill="white"/>
</clipPath>
</defs>
</svg>
