<svg width="17" height="17" viewBox="0 0 36 37" fill="none" xmlns="http://www.w3.org/2000/svg">
<path d="M25.1255 20.04L35.9999 18.5639L25.5283 17.222L34.7916 12.0555L24.1187 14.6723L30.7641 5.94972L22.3734 12.391L25.2598 2.25939L19.6212 11.6529L18.1445 0.783264L16.7348 11.2504L11.6333 1.99101L14.2512 12.6594L5.52486 5.94972L11.9689 14.4039L1.83295 11.4517L11.2305 17.1549L0.289062 18.5639L10.8278 19.9729L1.56445 25.1394L12.2374 22.4555L5.52486 31.1781L13.9827 24.7368L11.0292 34.9355L16.7348 25.542L18.1445 36.4117L19.5541 25.9446L24.7228 35.2039L22.0378 24.5355L30.7641 31.1781L24.32 22.791L34.5231 25.6762L25.1255 20.04Z" fill="#F52E5E"/>
</svg>