<svg width="453" height="615" viewBox="0 0 453 615" fill="none" xmlns="http://www.w3.org/2000/svg">
<path d="M272.151 134.173L227.851 114.773C226.951 114.373 226.251 113.473 226.051 112.473C225.851 111.473 226.251 110.473 227.051 109.773L270.551 70.7726C271.451 69.9726 272.651 69.7726 273.751 70.2726C274.851 70.7726 275.551 71.7726 275.551 72.9726L276.351 131.373C276.351 132.373 275.851 133.373 275.051 133.873C274.151 134.473 273.151 134.573 272.151 134.173ZM234.551 111.173L270.351 126.873L269.751 79.6726L234.551 111.173Z" fill="white"/>
<path d="M371.5 495C378.404 495 384 489.404 384 482.5C384 475.596 378.404 470 371.5 470C364.596 470 359 475.596 359 482.5C359 489.404 364.596 495 371.5 495Z" fill="white"/>
</svg>
